<mxfile host="app.diagrams.net" agent="Mozilla/5.0 (Windows NT 10.0; Win64; x64) AppleWebKit/537.36 (KHTML, like Gecko) Chrome/131.0.0.0 Safari/537.36" version="24.8.3" pages="2">
  <diagram name="Mockup-HistorialEjecuciones" id="yugv_Pb0Pf8rTDYSpF9m">
    <mxGraphModel dx="1337" dy="730" grid="1" gridSize="10" guides="1" tooltips="1" connect="1" arrows="1" fold="1" page="1" pageScale="1" pageWidth="827" pageHeight="1169" math="0" shadow="0">
      <root>
        <mxCell id="0" />
        <mxCell id="1" parent="0" />
        <mxCell id="kgRHYQhIqhMZuhtwXO5x-1" value="Historial de Ejecuciones" style="strokeWidth=1;shadow=0;dashed=0;align=center;html=1;shape=mxgraph.mockup.containers.window;align=left;verticalAlign=top;spacingLeft=8;strokeColor2=#008cff;strokeColor3=#c4c4c4;fontColor=#666666;mainText=;fontSize=17;labelBackgroundColor=none;whiteSpace=wrap;" vertex="1" parent="1">
          <mxGeometry x="139" y="190" width="861" height="380" as="geometry" />
        </mxCell>
        <mxCell id="kgRHYQhIqhMZuhtwXO5x-55" value="ConfiguraciÃ³n" style="swimlane;strokeColor=#999999;swimlaneFillColor=#FFFFFF;fillColor=#ffffff;fontColor=#008CFF;fontStyle=0;childLayout=stackLayout;horizontal=1;startSize=30;horizontalStack=0;resizeParent=1;resizeParentMax=0;resizeLast=0;collapsible=0;marginBottom=0;whiteSpace=wrap;html=1;fontSize=17;" vertex="1" parent="1">
          <mxGeometry x="180" y="220" width="110" height="350" as="geometry" />
        </mxCell>
        <mxCell id="kgRHYQhIqhMZuhtwXO5x-56" value="Item 1" style="text;spacing=0;strokeColor=none;align=left;verticalAlign=middle;spacingLeft=7;spacingRight=10;overflow=hidden;points=[[0,0.5],[1,0.5]];portConstraint=eastwest;rotatable=0;whiteSpace=wrap;html=1;fillColor=none;fontColor=#666666;fontSize=17;" vertex="1" parent="kgRHYQhIqhMZuhtwXO5x-55">
          <mxGeometry y="30" width="110" height="20" as="geometry" />
        </mxCell>
        <mxCell id="kgRHYQhIqhMZuhtwXO5x-57" value="Item 2" style="text;spacing=0;strokeColor=none;align=left;verticalAlign=middle;spacingLeft=7;spacingRight=10;overflow=hidden;points=[[0,0.5],[1,0.5]];portConstraint=eastwest;rotatable=0;whiteSpace=wrap;html=1;rSize=5;fillColor=none;fontColor=#666666;fontSize=17;" vertex="1" parent="kgRHYQhIqhMZuhtwXO5x-55">
          <mxGeometry y="50" width="110" height="20" as="geometry" />
        </mxCell>
        <mxCell id="kgRHYQhIqhMZuhtwXO5x-58" value="Item 3" style="text;spacing=0;strokeColor=none;align=left;verticalAlign=middle;spacingLeft=7;spacingRight=10;overflow=hidden;points=[[0,0.5],[1,0.5]];portConstraint=eastwest;rotatable=0;whiteSpace=wrap;html=1;rSize=5;fillColor=#DDEEFF;fontColor=#666666;fontSize=17;" vertex="1" parent="kgRHYQhIqhMZuhtwXO5x-55">
          <mxGeometry y="70" width="110" height="20" as="geometry" />
        </mxCell>
        <mxCell id="kgRHYQhIqhMZuhtwXO5x-59" value="Item 4" style="text;spacing=0;strokeColor=none;align=left;verticalAlign=middle;spacingLeft=7;spacingRight=10;overflow=hidden;points=[[0,0.5],[1,0.5]];portConstraint=eastwest;rotatable=0;whiteSpace=wrap;html=1;fillColor=none;fontColor=#666666;fontSize=17;" vertex="1" parent="kgRHYQhIqhMZuhtwXO5x-55">
          <mxGeometry y="90" width="110" height="20" as="geometry" />
        </mxCell>
        <mxCell id="kgRHYQhIqhMZuhtwXO5x-61" value="Item 5" style="text;spacing=0;strokeColor=none;align=left;verticalAlign=middle;spacingLeft=7;spacingRight=10;overflow=hidden;points=[[0,0.5],[1,0.5]];portConstraint=eastwest;rotatable=0;whiteSpace=wrap;html=1;fillColor=none;fontColor=#666666;fontSize=17;" vertex="1" parent="kgRHYQhIqhMZuhtwXO5x-55">
          <mxGeometry y="110" width="110" height="20" as="geometry" />
        </mxCell>
        <mxCell id="kgRHYQhIqhMZuhtwXO5x-62" value="Item 4" style="text;spacing=0;strokeColor=none;align=left;verticalAlign=middle;spacingLeft=7;spacingRight=10;overflow=hidden;points=[[0,0.5],[1,0.5]];portConstraint=eastwest;rotatable=0;whiteSpace=wrap;html=1;fillColor=none;fontColor=#666666;fontSize=17;" vertex="1" parent="kgRHYQhIqhMZuhtwXO5x-55">
          <mxGeometry y="130" width="110" height="20" as="geometry" />
        </mxCell>
        <mxCell id="kgRHYQhIqhMZuhtwXO5x-63" value="Item 4" style="text;spacing=0;strokeColor=none;align=left;verticalAlign=middle;spacingLeft=7;spacingRight=10;overflow=hidden;points=[[0,0.5],[1,0.5]];portConstraint=eastwest;rotatable=0;whiteSpace=wrap;html=1;fillColor=none;fontColor=#666666;fontSize=17;" vertex="1" parent="kgRHYQhIqhMZuhtwXO5x-55">
          <mxGeometry y="150" width="110" height="20" as="geometry" />
        </mxCell>
        <mxCell id="kgRHYQhIqhMZuhtwXO5x-64" value="Item 4" style="text;spacing=0;strokeColor=none;align=left;verticalAlign=middle;spacingLeft=7;spacingRight=10;overflow=hidden;points=[[0,0.5],[1,0.5]];portConstraint=eastwest;rotatable=0;whiteSpace=wrap;html=1;fillColor=none;fontColor=#666666;fontSize=17;" vertex="1" parent="kgRHYQhIqhMZuhtwXO5x-55">
          <mxGeometry y="170" width="110" height="20" as="geometry" />
        </mxCell>
        <mxCell id="kgRHYQhIqhMZuhtwXO5x-65" value="Item 4" style="text;spacing=0;strokeColor=none;align=left;verticalAlign=middle;spacingLeft=7;spacingRight=10;overflow=hidden;points=[[0,0.5],[1,0.5]];portConstraint=eastwest;rotatable=0;whiteSpace=wrap;html=1;fillColor=none;fontColor=#666666;fontSize=17;" vertex="1" parent="kgRHYQhIqhMZuhtwXO5x-55">
          <mxGeometry y="190" width="110" height="20" as="geometry" />
        </mxCell>
        <mxCell id="kgRHYQhIqhMZuhtwXO5x-66" value="Item 4" style="text;spacing=0;strokeColor=none;align=left;verticalAlign=middle;spacingLeft=7;spacingRight=10;overflow=hidden;points=[[0,0.5],[1,0.5]];portConstraint=eastwest;rotatable=0;whiteSpace=wrap;html=1;fillColor=none;fontColor=#666666;fontSize=17;" vertex="1" parent="kgRHYQhIqhMZuhtwXO5x-55">
          <mxGeometry y="210" width="110" height="20" as="geometry" />
        </mxCell>
        <mxCell id="kgRHYQhIqhMZuhtwXO5x-67" value="Item 4" style="text;spacing=0;strokeColor=none;align=left;verticalAlign=middle;spacingLeft=7;spacingRight=10;overflow=hidden;points=[[0,0.5],[1,0.5]];portConstraint=eastwest;rotatable=0;whiteSpace=wrap;html=1;fillColor=none;fontColor=#666666;fontSize=17;" vertex="1" parent="kgRHYQhIqhMZuhtwXO5x-55">
          <mxGeometry y="230" width="110" height="20" as="geometry" />
        </mxCell>
        <mxCell id="kgRHYQhIqhMZuhtwXO5x-68" value="Item 4" style="text;spacing=0;strokeColor=none;align=left;verticalAlign=middle;spacingLeft=7;spacingRight=10;overflow=hidden;points=[[0,0.5],[1,0.5]];portConstraint=eastwest;rotatable=0;whiteSpace=wrap;html=1;fillColor=none;fontColor=#666666;fontSize=17;" vertex="1" parent="kgRHYQhIqhMZuhtwXO5x-55">
          <mxGeometry y="250" width="110" height="20" as="geometry" />
        </mxCell>
        <mxCell id="kgRHYQhIqhMZuhtwXO5x-60" value="" style="text;spacing=0;strokeColor=none;align=left;verticalAlign=middle;spacingLeft=7;spacingRight=10;overflow=hidden;points=[[0,0.5],[1,0.5]];portConstraint=eastwest;rotatable=0;whiteSpace=wrap;html=1;fillColor=none;fontColor=#666666;fontSize=17;" vertex="1" parent="kgRHYQhIqhMZuhtwXO5x-55">
          <mxGeometry y="270" width="110" height="80" as="geometry" />
        </mxCell>
        <mxCell id="kgRHYQhIqhMZuhtwXO5x-83" value="Tiempo" style="swimlane;strokeColor=#999999;swimlaneFillColor=#FFFFFF;fillColor=#ffffff;fontColor=#008CFF;fontStyle=0;childLayout=stackLayout;horizontal=1;startSize=30;horizontalStack=0;resizeParent=1;resizeParentMax=0;resizeLast=0;collapsible=0;marginBottom=0;whiteSpace=wrap;html=1;fontSize=17;" vertex="1" parent="1">
          <mxGeometry x="290" y="220" width="70" height="350" as="geometry" />
        </mxCell>
        <mxCell id="kgRHYQhIqhMZuhtwXO5x-84" value="Item 1" style="text;spacing=0;strokeColor=none;align=left;verticalAlign=middle;spacingLeft=7;spacingRight=10;overflow=hidden;points=[[0,0.5],[1,0.5]];portConstraint=eastwest;rotatable=0;whiteSpace=wrap;html=1;fillColor=none;fontColor=#666666;fontSize=17;" vertex="1" parent="kgRHYQhIqhMZuhtwXO5x-83">
          <mxGeometry y="30" width="70" height="20" as="geometry" />
        </mxCell>
        <mxCell id="kgRHYQhIqhMZuhtwXO5x-85" value="Item 2" style="text;spacing=0;strokeColor=none;align=left;verticalAlign=middle;spacingLeft=7;spacingRight=10;overflow=hidden;points=[[0,0.5],[1,0.5]];portConstraint=eastwest;rotatable=0;whiteSpace=wrap;html=1;rSize=5;fillColor=none;fontColor=#666666;fontSize=17;" vertex="1" parent="kgRHYQhIqhMZuhtwXO5x-83">
          <mxGeometry y="50" width="70" height="20" as="geometry" />
        </mxCell>
        <mxCell id="kgRHYQhIqhMZuhtwXO5x-86" value="Item 3" style="text;spacing=0;strokeColor=none;align=left;verticalAlign=middle;spacingLeft=7;spacingRight=10;overflow=hidden;points=[[0,0.5],[1,0.5]];portConstraint=eastwest;rotatable=0;whiteSpace=wrap;html=1;rSize=5;fillColor=#DDEEFF;fontColor=#666666;fontSize=17;" vertex="1" parent="kgRHYQhIqhMZuhtwXO5x-83">
          <mxGeometry y="70" width="70" height="20" as="geometry" />
        </mxCell>
        <mxCell id="kgRHYQhIqhMZuhtwXO5x-87" value="Item 4" style="text;spacing=0;strokeColor=none;align=left;verticalAlign=middle;spacingLeft=7;spacingRight=10;overflow=hidden;points=[[0,0.5],[1,0.5]];portConstraint=eastwest;rotatable=0;whiteSpace=wrap;html=1;fillColor=none;fontColor=#666666;fontSize=17;" vertex="1" parent="kgRHYQhIqhMZuhtwXO5x-83">
          <mxGeometry y="90" width="70" height="20" as="geometry" />
        </mxCell>
        <mxCell id="kgRHYQhIqhMZuhtwXO5x-88" value="Item 4" style="text;spacing=0;strokeColor=none;align=left;verticalAlign=middle;spacingLeft=7;spacingRight=10;overflow=hidden;points=[[0,0.5],[1,0.5]];portConstraint=eastwest;rotatable=0;whiteSpace=wrap;html=1;fillColor=none;fontColor=#666666;fontSize=17;" vertex="1" parent="kgRHYQhIqhMZuhtwXO5x-83">
          <mxGeometry y="110" width="70" height="20" as="geometry" />
        </mxCell>
        <mxCell id="kgRHYQhIqhMZuhtwXO5x-89" value="Item 4" style="text;spacing=0;strokeColor=none;align=left;verticalAlign=middle;spacingLeft=7;spacingRight=10;overflow=hidden;points=[[0,0.5],[1,0.5]];portConstraint=eastwest;rotatable=0;whiteSpace=wrap;html=1;fillColor=none;fontColor=#666666;fontSize=17;" vertex="1" parent="kgRHYQhIqhMZuhtwXO5x-83">
          <mxGeometry y="130" width="70" height="20" as="geometry" />
        </mxCell>
        <mxCell id="kgRHYQhIqhMZuhtwXO5x-90" value="Item 4" style="text;spacing=0;strokeColor=none;align=left;verticalAlign=middle;spacingLeft=7;spacingRight=10;overflow=hidden;points=[[0,0.5],[1,0.5]];portConstraint=eastwest;rotatable=0;whiteSpace=wrap;html=1;fillColor=none;fontColor=#666666;fontSize=17;" vertex="1" parent="kgRHYQhIqhMZuhtwXO5x-83">
          <mxGeometry y="150" width="70" height="20" as="geometry" />
        </mxCell>
        <mxCell id="kgRHYQhIqhMZuhtwXO5x-91" value="Item 4" style="text;spacing=0;strokeColor=none;align=left;verticalAlign=middle;spacingLeft=7;spacingRight=10;overflow=hidden;points=[[0,0.5],[1,0.5]];portConstraint=eastwest;rotatable=0;whiteSpace=wrap;html=1;fillColor=none;fontColor=#666666;fontSize=17;" vertex="1" parent="kgRHYQhIqhMZuhtwXO5x-83">
          <mxGeometry y="170" width="70" height="20" as="geometry" />
        </mxCell>
        <mxCell id="kgRHYQhIqhMZuhtwXO5x-92" value="Item 4" style="text;spacing=0;strokeColor=none;align=left;verticalAlign=middle;spacingLeft=7;spacingRight=10;overflow=hidden;points=[[0,0.5],[1,0.5]];portConstraint=eastwest;rotatable=0;whiteSpace=wrap;html=1;fillColor=none;fontColor=#666666;fontSize=17;" vertex="1" parent="kgRHYQhIqhMZuhtwXO5x-83">
          <mxGeometry y="190" width="70" height="20" as="geometry" />
        </mxCell>
        <mxCell id="kgRHYQhIqhMZuhtwXO5x-93" value="Item 4" style="text;spacing=0;strokeColor=none;align=left;verticalAlign=middle;spacingLeft=7;spacingRight=10;overflow=hidden;points=[[0,0.5],[1,0.5]];portConstraint=eastwest;rotatable=0;whiteSpace=wrap;html=1;fillColor=none;fontColor=#666666;fontSize=17;" vertex="1" parent="kgRHYQhIqhMZuhtwXO5x-83">
          <mxGeometry y="210" width="70" height="20" as="geometry" />
        </mxCell>
        <mxCell id="kgRHYQhIqhMZuhtwXO5x-94" value="Item 4" style="text;spacing=0;strokeColor=none;align=left;verticalAlign=middle;spacingLeft=7;spacingRight=10;overflow=hidden;points=[[0,0.5],[1,0.5]];portConstraint=eastwest;rotatable=0;whiteSpace=wrap;html=1;fillColor=none;fontColor=#666666;fontSize=17;" vertex="1" parent="kgRHYQhIqhMZuhtwXO5x-83">
          <mxGeometry y="230" width="70" height="20" as="geometry" />
        </mxCell>
        <mxCell id="kgRHYQhIqhMZuhtwXO5x-95" value="Item 4" style="text;spacing=0;strokeColor=none;align=left;verticalAlign=middle;spacingLeft=7;spacingRight=10;overflow=hidden;points=[[0,0.5],[1,0.5]];portConstraint=eastwest;rotatable=0;whiteSpace=wrap;html=1;fillColor=none;fontColor=#666666;fontSize=17;" vertex="1" parent="kgRHYQhIqhMZuhtwXO5x-83">
          <mxGeometry y="250" width="70" height="20" as="geometry" />
        </mxCell>
        <mxCell id="kgRHYQhIqhMZuhtwXO5x-96" value="" style="text;spacing=0;strokeColor=none;align=left;verticalAlign=middle;spacingLeft=7;spacingRight=10;overflow=hidden;points=[[0,0.5],[1,0.5]];portConstraint=eastwest;rotatable=0;whiteSpace=wrap;html=1;fillColor=none;fontColor=#666666;fontSize=17;" vertex="1" parent="kgRHYQhIqhMZuhtwXO5x-83">
          <mxGeometry y="270" width="70" height="80" as="geometry" />
        </mxCell>
        <mxCell id="kgRHYQhIqhMZuhtwXO5x-97" value="CPI" style="swimlane;strokeColor=#999999;swimlaneFillColor=#FFFFFF;fillColor=#ffffff;fontColor=#008CFF;fontStyle=0;childLayout=stackLayout;horizontal=1;startSize=30;horizontalStack=0;resizeParent=1;resizeParentMax=0;resizeLast=0;collapsible=0;marginBottom=0;whiteSpace=wrap;html=1;fontSize=17;" vertex="1" parent="1">
          <mxGeometry x="360" y="220" width="70" height="350" as="geometry" />
        </mxCell>
        <mxCell id="kgRHYQhIqhMZuhtwXO5x-98" value="Item 1" style="text;spacing=0;strokeColor=none;align=left;verticalAlign=middle;spacingLeft=7;spacingRight=10;overflow=hidden;points=[[0,0.5],[1,0.5]];portConstraint=eastwest;rotatable=0;whiteSpace=wrap;html=1;fillColor=none;fontColor=#666666;fontSize=17;" vertex="1" parent="kgRHYQhIqhMZuhtwXO5x-97">
          <mxGeometry y="30" width="70" height="20" as="geometry" />
        </mxCell>
        <mxCell id="kgRHYQhIqhMZuhtwXO5x-99" value="Item 2" style="text;spacing=0;strokeColor=none;align=left;verticalAlign=middle;spacingLeft=7;spacingRight=10;overflow=hidden;points=[[0,0.5],[1,0.5]];portConstraint=eastwest;rotatable=0;whiteSpace=wrap;html=1;rSize=5;fillColor=none;fontColor=#666666;fontSize=17;" vertex="1" parent="kgRHYQhIqhMZuhtwXO5x-97">
          <mxGeometry y="50" width="70" height="20" as="geometry" />
        </mxCell>
        <mxCell id="kgRHYQhIqhMZuhtwXO5x-100" value="Item 3" style="text;spacing=0;strokeColor=none;align=left;verticalAlign=middle;spacingLeft=7;spacingRight=10;overflow=hidden;points=[[0,0.5],[1,0.5]];portConstraint=eastwest;rotatable=0;whiteSpace=wrap;html=1;rSize=5;fillColor=#DDEEFF;fontColor=#666666;fontSize=17;" vertex="1" parent="kgRHYQhIqhMZuhtwXO5x-97">
          <mxGeometry y="70" width="70" height="20" as="geometry" />
        </mxCell>
        <mxCell id="kgRHYQhIqhMZuhtwXO5x-101" value="Item 4" style="text;spacing=0;strokeColor=none;align=left;verticalAlign=middle;spacingLeft=7;spacingRight=10;overflow=hidden;points=[[0,0.5],[1,0.5]];portConstraint=eastwest;rotatable=0;whiteSpace=wrap;html=1;fillColor=none;fontColor=#666666;fontSize=17;" vertex="1" parent="kgRHYQhIqhMZuhtwXO5x-97">
          <mxGeometry y="90" width="70" height="20" as="geometry" />
        </mxCell>
        <mxCell id="kgRHYQhIqhMZuhtwXO5x-102" value="Item 4" style="text;spacing=0;strokeColor=none;align=left;verticalAlign=middle;spacingLeft=7;spacingRight=10;overflow=hidden;points=[[0,0.5],[1,0.5]];portConstraint=eastwest;rotatable=0;whiteSpace=wrap;html=1;fillColor=none;fontColor=#666666;fontSize=17;" vertex="1" parent="kgRHYQhIqhMZuhtwXO5x-97">
          <mxGeometry y="110" width="70" height="20" as="geometry" />
        </mxCell>
        <mxCell id="kgRHYQhIqhMZuhtwXO5x-103" value="Item 4" style="text;spacing=0;strokeColor=none;align=left;verticalAlign=middle;spacingLeft=7;spacingRight=10;overflow=hidden;points=[[0,0.5],[1,0.5]];portConstraint=eastwest;rotatable=0;whiteSpace=wrap;html=1;fillColor=none;fontColor=#666666;fontSize=17;" vertex="1" parent="kgRHYQhIqhMZuhtwXO5x-97">
          <mxGeometry y="130" width="70" height="20" as="geometry" />
        </mxCell>
        <mxCell id="kgRHYQhIqhMZuhtwXO5x-104" value="Item 4" style="text;spacing=0;strokeColor=none;align=left;verticalAlign=middle;spacingLeft=7;spacingRight=10;overflow=hidden;points=[[0,0.5],[1,0.5]];portConstraint=eastwest;rotatable=0;whiteSpace=wrap;html=1;fillColor=none;fontColor=#666666;fontSize=17;" vertex="1" parent="kgRHYQhIqhMZuhtwXO5x-97">
          <mxGeometry y="150" width="70" height="20" as="geometry" />
        </mxCell>
        <mxCell id="kgRHYQhIqhMZuhtwXO5x-105" value="Item 4" style="text;spacing=0;strokeColor=none;align=left;verticalAlign=middle;spacingLeft=7;spacingRight=10;overflow=hidden;points=[[0,0.5],[1,0.5]];portConstraint=eastwest;rotatable=0;whiteSpace=wrap;html=1;fillColor=none;fontColor=#666666;fontSize=17;" vertex="1" parent="kgRHYQhIqhMZuhtwXO5x-97">
          <mxGeometry y="170" width="70" height="20" as="geometry" />
        </mxCell>
        <mxCell id="kgRHYQhIqhMZuhtwXO5x-106" value="Item 4" style="text;spacing=0;strokeColor=none;align=left;verticalAlign=middle;spacingLeft=7;spacingRight=10;overflow=hidden;points=[[0,0.5],[1,0.5]];portConstraint=eastwest;rotatable=0;whiteSpace=wrap;html=1;fillColor=none;fontColor=#666666;fontSize=17;" vertex="1" parent="kgRHYQhIqhMZuhtwXO5x-97">
          <mxGeometry y="190" width="70" height="20" as="geometry" />
        </mxCell>
        <mxCell id="kgRHYQhIqhMZuhtwXO5x-107" value="Item 4" style="text;spacing=0;strokeColor=none;align=left;verticalAlign=middle;spacingLeft=7;spacingRight=10;overflow=hidden;points=[[0,0.5],[1,0.5]];portConstraint=eastwest;rotatable=0;whiteSpace=wrap;html=1;fillColor=none;fontColor=#666666;fontSize=17;" vertex="1" parent="kgRHYQhIqhMZuhtwXO5x-97">
          <mxGeometry y="210" width="70" height="20" as="geometry" />
        </mxCell>
        <mxCell id="kgRHYQhIqhMZuhtwXO5x-108" value="Item 4" style="text;spacing=0;strokeColor=none;align=left;verticalAlign=middle;spacingLeft=7;spacingRight=10;overflow=hidden;points=[[0,0.5],[1,0.5]];portConstraint=eastwest;rotatable=0;whiteSpace=wrap;html=1;fillColor=none;fontColor=#666666;fontSize=17;" vertex="1" parent="kgRHYQhIqhMZuhtwXO5x-97">
          <mxGeometry y="230" width="70" height="20" as="geometry" />
        </mxCell>
        <mxCell id="kgRHYQhIqhMZuhtwXO5x-109" value="Item 4" style="text;spacing=0;strokeColor=none;align=left;verticalAlign=middle;spacingLeft=7;spacingRight=10;overflow=hidden;points=[[0,0.5],[1,0.5]];portConstraint=eastwest;rotatable=0;whiteSpace=wrap;html=1;fillColor=none;fontColor=#666666;fontSize=17;" vertex="1" parent="kgRHYQhIqhMZuhtwXO5x-97">
          <mxGeometry y="250" width="70" height="20" as="geometry" />
        </mxCell>
        <mxCell id="kgRHYQhIqhMZuhtwXO5x-110" value="" style="text;spacing=0;strokeColor=none;align=left;verticalAlign=middle;spacingLeft=7;spacingRight=10;overflow=hidden;points=[[0,0.5],[1,0.5]];portConstraint=eastwest;rotatable=0;whiteSpace=wrap;html=1;fillColor=none;fontColor=#666666;fontSize=17;" vertex="1" parent="kgRHYQhIqhMZuhtwXO5x-97">
          <mxGeometry y="270" width="70" height="80" as="geometry" />
        </mxCell>
        <mxCell id="kgRHYQhIqhMZuhtwXO5x-111" value="IPC" style="swimlane;strokeColor=#999999;swimlaneFillColor=#FFFFFF;fillColor=#ffffff;fontColor=#008CFF;fontStyle=0;childLayout=stackLayout;horizontal=1;startSize=30;horizontalStack=0;resizeParent=1;resizeParentMax=0;resizeLast=0;collapsible=0;marginBottom=0;whiteSpace=wrap;html=1;fontSize=17;" vertex="1" parent="1">
          <mxGeometry x="430" y="220" width="70" height="350" as="geometry" />
        </mxCell>
        <mxCell id="kgRHYQhIqhMZuhtwXO5x-112" value="Item 1" style="text;spacing=0;strokeColor=none;align=left;verticalAlign=middle;spacingLeft=7;spacingRight=10;overflow=hidden;points=[[0,0.5],[1,0.5]];portConstraint=eastwest;rotatable=0;whiteSpace=wrap;html=1;fillColor=none;fontColor=#666666;fontSize=17;" vertex="1" parent="kgRHYQhIqhMZuhtwXO5x-111">
          <mxGeometry y="30" width="70" height="20" as="geometry" />
        </mxCell>
        <mxCell id="kgRHYQhIqhMZuhtwXO5x-113" value="Item 2" style="text;spacing=0;strokeColor=none;align=left;verticalAlign=middle;spacingLeft=7;spacingRight=10;overflow=hidden;points=[[0,0.5],[1,0.5]];portConstraint=eastwest;rotatable=0;whiteSpace=wrap;html=1;rSize=5;fillColor=none;fontColor=#666666;fontSize=17;" vertex="1" parent="kgRHYQhIqhMZuhtwXO5x-111">
          <mxGeometry y="50" width="70" height="20" as="geometry" />
        </mxCell>
        <mxCell id="kgRHYQhIqhMZuhtwXO5x-114" value="Item 3" style="text;spacing=0;strokeColor=none;align=left;verticalAlign=middle;spacingLeft=7;spacingRight=10;overflow=hidden;points=[[0,0.5],[1,0.5]];portConstraint=eastwest;rotatable=0;whiteSpace=wrap;html=1;rSize=5;fillColor=#DDEEFF;fontColor=#666666;fontSize=17;" vertex="1" parent="kgRHYQhIqhMZuhtwXO5x-111">
          <mxGeometry y="70" width="70" height="20" as="geometry" />
        </mxCell>
        <mxCell id="kgRHYQhIqhMZuhtwXO5x-115" value="Item 4" style="text;spacing=0;strokeColor=none;align=left;verticalAlign=middle;spacingLeft=7;spacingRight=10;overflow=hidden;points=[[0,0.5],[1,0.5]];portConstraint=eastwest;rotatable=0;whiteSpace=wrap;html=1;fillColor=none;fontColor=#666666;fontSize=17;" vertex="1" parent="kgRHYQhIqhMZuhtwXO5x-111">
          <mxGeometry y="90" width="70" height="20" as="geometry" />
        </mxCell>
        <mxCell id="kgRHYQhIqhMZuhtwXO5x-116" value="Item 4" style="text;spacing=0;strokeColor=none;align=left;verticalAlign=middle;spacingLeft=7;spacingRight=10;overflow=hidden;points=[[0,0.5],[1,0.5]];portConstraint=eastwest;rotatable=0;whiteSpace=wrap;html=1;fillColor=none;fontColor=#666666;fontSize=17;" vertex="1" parent="kgRHYQhIqhMZuhtwXO5x-111">
          <mxGeometry y="110" width="70" height="20" as="geometry" />
        </mxCell>
        <mxCell id="kgRHYQhIqhMZuhtwXO5x-117" value="Item 4" style="text;spacing=0;strokeColor=none;align=left;verticalAlign=middle;spacingLeft=7;spacingRight=10;overflow=hidden;points=[[0,0.5],[1,0.5]];portConstraint=eastwest;rotatable=0;whiteSpace=wrap;html=1;fillColor=none;fontColor=#666666;fontSize=17;" vertex="1" parent="kgRHYQhIqhMZuhtwXO5x-111">
          <mxGeometry y="130" width="70" height="20" as="geometry" />
        </mxCell>
        <mxCell id="kgRHYQhIqhMZuhtwXO5x-118" value="Item 4" style="text;spacing=0;strokeColor=none;align=left;verticalAlign=middle;spacingLeft=7;spacingRight=10;overflow=hidden;points=[[0,0.5],[1,0.5]];portConstraint=eastwest;rotatable=0;whiteSpace=wrap;html=1;fillColor=none;fontColor=#666666;fontSize=17;" vertex="1" parent="kgRHYQhIqhMZuhtwXO5x-111">
          <mxGeometry y="150" width="70" height="20" as="geometry" />
        </mxCell>
        <mxCell id="kgRHYQhIqhMZuhtwXO5x-119" value="Item 4" style="text;spacing=0;strokeColor=none;align=left;verticalAlign=middle;spacingLeft=7;spacingRight=10;overflow=hidden;points=[[0,0.5],[1,0.5]];portConstraint=eastwest;rotatable=0;whiteSpace=wrap;html=1;fillColor=none;fontColor=#666666;fontSize=17;" vertex="1" parent="kgRHYQhIqhMZuhtwXO5x-111">
          <mxGeometry y="170" width="70" height="20" as="geometry" />
        </mxCell>
        <mxCell id="kgRHYQhIqhMZuhtwXO5x-120" value="Item 4" style="text;spacing=0;strokeColor=none;align=left;verticalAlign=middle;spacingLeft=7;spacingRight=10;overflow=hidden;points=[[0,0.5],[1,0.5]];portConstraint=eastwest;rotatable=0;whiteSpace=wrap;html=1;fillColor=none;fontColor=#666666;fontSize=17;" vertex="1" parent="kgRHYQhIqhMZuhtwXO5x-111">
          <mxGeometry y="190" width="70" height="20" as="geometry" />
        </mxCell>
        <mxCell id="kgRHYQhIqhMZuhtwXO5x-121" value="Item 4" style="text;spacing=0;strokeColor=none;align=left;verticalAlign=middle;spacingLeft=7;spacingRight=10;overflow=hidden;points=[[0,0.5],[1,0.5]];portConstraint=eastwest;rotatable=0;whiteSpace=wrap;html=1;fillColor=none;fontColor=#666666;fontSize=17;" vertex="1" parent="kgRHYQhIqhMZuhtwXO5x-111">
          <mxGeometry y="210" width="70" height="20" as="geometry" />
        </mxCell>
        <mxCell id="kgRHYQhIqhMZuhtwXO5x-122" value="Item 4" style="text;spacing=0;strokeColor=none;align=left;verticalAlign=middle;spacingLeft=7;spacingRight=10;overflow=hidden;points=[[0,0.5],[1,0.5]];portConstraint=eastwest;rotatable=0;whiteSpace=wrap;html=1;fillColor=none;fontColor=#666666;fontSize=17;" vertex="1" parent="kgRHYQhIqhMZuhtwXO5x-111">
          <mxGeometry y="230" width="70" height="20" as="geometry" />
        </mxCell>
        <mxCell id="kgRHYQhIqhMZuhtwXO5x-123" value="Item 4" style="text;spacing=0;strokeColor=none;align=left;verticalAlign=middle;spacingLeft=7;spacingRight=10;overflow=hidden;points=[[0,0.5],[1,0.5]];portConstraint=eastwest;rotatable=0;whiteSpace=wrap;html=1;fillColor=none;fontColor=#666666;fontSize=17;" vertex="1" parent="kgRHYQhIqhMZuhtwXO5x-111">
          <mxGeometry y="250" width="70" height="20" as="geometry" />
        </mxCell>
        <mxCell id="kgRHYQhIqhMZuhtwXO5x-124" value="" style="text;spacing=0;strokeColor=none;align=left;verticalAlign=middle;spacingLeft=7;spacingRight=10;overflow=hidden;points=[[0,0.5],[1,0.5]];portConstraint=eastwest;rotatable=0;whiteSpace=wrap;html=1;fillColor=none;fontColor=#666666;fontSize=17;" vertex="1" parent="kgRHYQhIqhMZuhtwXO5x-111">
          <mxGeometry y="270" width="70" height="80" as="geometry" />
        </mxCell>
        <mxCell id="kgRHYQhIqhMZuhtwXO5x-125" value="Frecuencia" style="swimlane;strokeColor=#999999;swimlaneFillColor=#FFFFFF;fillColor=#ffffff;fontColor=#008CFF;fontStyle=0;childLayout=stackLayout;horizontal=1;startSize=30;horizontalStack=0;resizeParent=1;resizeParentMax=0;resizeLast=0;collapsible=0;marginBottom=0;whiteSpace=wrap;html=1;fontSize=17;" vertex="1" parent="1">
          <mxGeometry x="500" y="220" width="90" height="350" as="geometry" />
        </mxCell>
        <mxCell id="kgRHYQhIqhMZuhtwXO5x-126" value="Item 1" style="text;spacing=0;strokeColor=none;align=left;verticalAlign=middle;spacingLeft=7;spacingRight=10;overflow=hidden;points=[[0,0.5],[1,0.5]];portConstraint=eastwest;rotatable=0;whiteSpace=wrap;html=1;fillColor=none;fontColor=#666666;fontSize=17;" vertex="1" parent="kgRHYQhIqhMZuhtwXO5x-125">
          <mxGeometry y="30" width="90" height="20" as="geometry" />
        </mxCell>
        <mxCell id="kgRHYQhIqhMZuhtwXO5x-127" value="Item 2" style="text;spacing=0;strokeColor=none;align=left;verticalAlign=middle;spacingLeft=7;spacingRight=10;overflow=hidden;points=[[0,0.5],[1,0.5]];portConstraint=eastwest;rotatable=0;whiteSpace=wrap;html=1;rSize=5;fillColor=none;fontColor=#666666;fontSize=17;" vertex="1" parent="kgRHYQhIqhMZuhtwXO5x-125">
          <mxGeometry y="50" width="90" height="20" as="geometry" />
        </mxCell>
        <mxCell id="kgRHYQhIqhMZuhtwXO5x-128" value="Item 3" style="text;spacing=0;strokeColor=none;align=left;verticalAlign=middle;spacingLeft=7;spacingRight=10;overflow=hidden;points=[[0,0.5],[1,0.5]];portConstraint=eastwest;rotatable=0;whiteSpace=wrap;html=1;rSize=5;fillColor=#DDEEFF;fontColor=#666666;fontSize=17;" vertex="1" parent="kgRHYQhIqhMZuhtwXO5x-125">
          <mxGeometry y="70" width="90" height="20" as="geometry" />
        </mxCell>
        <mxCell id="kgRHYQhIqhMZuhtwXO5x-129" value="Item 4" style="text;spacing=0;strokeColor=none;align=left;verticalAlign=middle;spacingLeft=7;spacingRight=10;overflow=hidden;points=[[0,0.5],[1,0.5]];portConstraint=eastwest;rotatable=0;whiteSpace=wrap;html=1;fillColor=none;fontColor=#666666;fontSize=17;" vertex="1" parent="kgRHYQhIqhMZuhtwXO5x-125">
          <mxGeometry y="90" width="90" height="20" as="geometry" />
        </mxCell>
        <mxCell id="kgRHYQhIqhMZuhtwXO5x-130" value="Item 4" style="text;spacing=0;strokeColor=none;align=left;verticalAlign=middle;spacingLeft=7;spacingRight=10;overflow=hidden;points=[[0,0.5],[1,0.5]];portConstraint=eastwest;rotatable=0;whiteSpace=wrap;html=1;fillColor=none;fontColor=#666666;fontSize=17;" vertex="1" parent="kgRHYQhIqhMZuhtwXO5x-125">
          <mxGeometry y="110" width="90" height="20" as="geometry" />
        </mxCell>
        <mxCell id="kgRHYQhIqhMZuhtwXO5x-131" value="Item 4" style="text;spacing=0;strokeColor=none;align=left;verticalAlign=middle;spacingLeft=7;spacingRight=10;overflow=hidden;points=[[0,0.5],[1,0.5]];portConstraint=eastwest;rotatable=0;whiteSpace=wrap;html=1;fillColor=none;fontColor=#666666;fontSize=17;" vertex="1" parent="kgRHYQhIqhMZuhtwXO5x-125">
          <mxGeometry y="130" width="90" height="20" as="geometry" />
        </mxCell>
        <mxCell id="kgRHYQhIqhMZuhtwXO5x-132" value="Item 4" style="text;spacing=0;strokeColor=none;align=left;verticalAlign=middle;spacingLeft=7;spacingRight=10;overflow=hidden;points=[[0,0.5],[1,0.5]];portConstraint=eastwest;rotatable=0;whiteSpace=wrap;html=1;fillColor=none;fontColor=#666666;fontSize=17;" vertex="1" parent="kgRHYQhIqhMZuhtwXO5x-125">
          <mxGeometry y="150" width="90" height="20" as="geometry" />
        </mxCell>
        <mxCell id="kgRHYQhIqhMZuhtwXO5x-133" value="Item 4" style="text;spacing=0;strokeColor=none;align=left;verticalAlign=middle;spacingLeft=7;spacingRight=10;overflow=hidden;points=[[0,0.5],[1,0.5]];portConstraint=eastwest;rotatable=0;whiteSpace=wrap;html=1;fillColor=none;fontColor=#666666;fontSize=17;" vertex="1" parent="kgRHYQhIqhMZuhtwXO5x-125">
          <mxGeometry y="170" width="90" height="20" as="geometry" />
        </mxCell>
        <mxCell id="kgRHYQhIqhMZuhtwXO5x-134" value="Item 4" style="text;spacing=0;strokeColor=none;align=left;verticalAlign=middle;spacingLeft=7;spacingRight=10;overflow=hidden;points=[[0,0.5],[1,0.5]];portConstraint=eastwest;rotatable=0;whiteSpace=wrap;html=1;fillColor=none;fontColor=#666666;fontSize=17;" vertex="1" parent="kgRHYQhIqhMZuhtwXO5x-125">
          <mxGeometry y="190" width="90" height="20" as="geometry" />
        </mxCell>
        <mxCell id="kgRHYQhIqhMZuhtwXO5x-135" value="Item 4" style="text;spacing=0;strokeColor=none;align=left;verticalAlign=middle;spacingLeft=7;spacingRight=10;overflow=hidden;points=[[0,0.5],[1,0.5]];portConstraint=eastwest;rotatable=0;whiteSpace=wrap;html=1;fillColor=none;fontColor=#666666;fontSize=17;" vertex="1" parent="kgRHYQhIqhMZuhtwXO5x-125">
          <mxGeometry y="210" width="90" height="20" as="geometry" />
        </mxCell>
        <mxCell id="kgRHYQhIqhMZuhtwXO5x-136" value="Item 4" style="text;spacing=0;strokeColor=none;align=left;verticalAlign=middle;spacingLeft=7;spacingRight=10;overflow=hidden;points=[[0,0.5],[1,0.5]];portConstraint=eastwest;rotatable=0;whiteSpace=wrap;html=1;fillColor=none;fontColor=#666666;fontSize=17;" vertex="1" parent="kgRHYQhIqhMZuhtwXO5x-125">
          <mxGeometry y="230" width="90" height="20" as="geometry" />
        </mxCell>
        <mxCell id="kgRHYQhIqhMZuhtwXO5x-137" value="Item 4" style="text;spacing=0;strokeColor=none;align=left;verticalAlign=middle;spacingLeft=7;spacingRight=10;overflow=hidden;points=[[0,0.5],[1,0.5]];portConstraint=eastwest;rotatable=0;whiteSpace=wrap;html=1;fillColor=none;fontColor=#666666;fontSize=17;" vertex="1" parent="kgRHYQhIqhMZuhtwXO5x-125">
          <mxGeometry y="250" width="90" height="20" as="geometry" />
        </mxCell>
        <mxCell id="kgRHYQhIqhMZuhtwXO5x-138" value="" style="text;spacing=0;strokeColor=none;align=left;verticalAlign=middle;spacingLeft=7;spacingRight=10;overflow=hidden;points=[[0,0.5],[1,0.5]];portConstraint=eastwest;rotatable=0;whiteSpace=wrap;html=1;fillColor=none;fontColor=#666666;fontSize=17;" vertex="1" parent="kgRHYQhIqhMZuhtwXO5x-125">
          <mxGeometry y="270" width="90" height="80" as="geometry" />
        </mxCell>
        <mxCell id="kgRHYQhIqhMZuhtwXO5x-145" value="NÂ°" style="swimlane;strokeColor=#999999;swimlaneFillColor=#FFFFFF;fillColor=#ffffff;fontColor=#008CFF;fontStyle=0;childLayout=stackLayout;horizontal=1;startSize=30;horizontalStack=0;resizeParent=1;resizeParentMax=0;resizeLast=0;collapsible=0;marginBottom=0;whiteSpace=wrap;html=1;fontSize=17;" vertex="1" parent="1">
          <mxGeometry x="139" y="220" width="41" height="350" as="geometry" />
        </mxCell>
        <mxCell id="kgRHYQhIqhMZuhtwXO5x-146" value="1" style="text;spacing=0;strokeColor=none;align=left;verticalAlign=middle;spacingLeft=7;spacingRight=10;overflow=hidden;points=[[0,0.5],[1,0.5]];portConstraint=eastwest;rotatable=0;whiteSpace=wrap;html=1;fillColor=none;fontColor=#666666;fontSize=17;" vertex="1" parent="kgRHYQhIqhMZuhtwXO5x-145">
          <mxGeometry y="30" width="41" height="20" as="geometry" />
        </mxCell>
        <mxCell id="kgRHYQhIqhMZuhtwXO5x-147" value="2" style="text;spacing=0;strokeColor=none;align=left;verticalAlign=middle;spacingLeft=7;spacingRight=10;overflow=hidden;points=[[0,0.5],[1,0.5]];portConstraint=eastwest;rotatable=0;whiteSpace=wrap;html=1;rSize=5;fillColor=none;fontColor=#666666;fontSize=17;" vertex="1" parent="kgRHYQhIqhMZuhtwXO5x-145">
          <mxGeometry y="50" width="41" height="20" as="geometry" />
        </mxCell>
        <mxCell id="kgRHYQhIqhMZuhtwXO5x-148" value="3" style="text;spacing=0;strokeColor=none;align=left;verticalAlign=middle;spacingLeft=7;spacingRight=10;overflow=hidden;points=[[0,0.5],[1,0.5]];portConstraint=eastwest;rotatable=0;whiteSpace=wrap;html=1;rSize=5;fillColor=#DDEEFF;fontColor=#666666;fontSize=17;" vertex="1" parent="kgRHYQhIqhMZuhtwXO5x-145">
          <mxGeometry y="70" width="41" height="20" as="geometry" />
        </mxCell>
        <mxCell id="kgRHYQhIqhMZuhtwXO5x-149" value="4" style="text;spacing=0;strokeColor=none;align=left;verticalAlign=middle;spacingLeft=7;spacingRight=10;overflow=hidden;points=[[0,0.5],[1,0.5]];portConstraint=eastwest;rotatable=0;whiteSpace=wrap;html=1;fillColor=none;fontColor=#666666;fontSize=17;" vertex="1" parent="kgRHYQhIqhMZuhtwXO5x-145">
          <mxGeometry y="90" width="41" height="20" as="geometry" />
        </mxCell>
        <mxCell id="kgRHYQhIqhMZuhtwXO5x-150" value="5" style="text;spacing=0;strokeColor=none;align=left;verticalAlign=middle;spacingLeft=7;spacingRight=10;overflow=hidden;points=[[0,0.5],[1,0.5]];portConstraint=eastwest;rotatable=0;whiteSpace=wrap;html=1;fillColor=none;fontColor=#666666;fontSize=17;" vertex="1" parent="kgRHYQhIqhMZuhtwXO5x-145">
          <mxGeometry y="110" width="41" height="20" as="geometry" />
        </mxCell>
        <mxCell id="kgRHYQhIqhMZuhtwXO5x-151" value="6" style="text;spacing=0;strokeColor=none;align=left;verticalAlign=middle;spacingLeft=7;spacingRight=10;overflow=hidden;points=[[0,0.5],[1,0.5]];portConstraint=eastwest;rotatable=0;whiteSpace=wrap;html=1;fillColor=none;fontColor=#666666;fontSize=17;" vertex="1" parent="kgRHYQhIqhMZuhtwXO5x-145">
          <mxGeometry y="130" width="41" height="20" as="geometry" />
        </mxCell>
        <mxCell id="kgRHYQhIqhMZuhtwXO5x-152" value="7" style="text;spacing=0;strokeColor=none;align=left;verticalAlign=middle;spacingLeft=7;spacingRight=10;overflow=hidden;points=[[0,0.5],[1,0.5]];portConstraint=eastwest;rotatable=0;whiteSpace=wrap;html=1;fillColor=none;fontColor=#666666;fontSize=17;" vertex="1" parent="kgRHYQhIqhMZuhtwXO5x-145">
          <mxGeometry y="150" width="41" height="20" as="geometry" />
        </mxCell>
        <mxCell id="kgRHYQhIqhMZuhtwXO5x-153" value="8" style="text;spacing=0;strokeColor=none;align=left;verticalAlign=middle;spacingLeft=7;spacingRight=10;overflow=hidden;points=[[0,0.5],[1,0.5]];portConstraint=eastwest;rotatable=0;whiteSpace=wrap;html=1;fillColor=none;fontColor=#666666;fontSize=17;" vertex="1" parent="kgRHYQhIqhMZuhtwXO5x-145">
          <mxGeometry y="170" width="41" height="20" as="geometry" />
        </mxCell>
        <mxCell id="kgRHYQhIqhMZuhtwXO5x-154" value="9" style="text;spacing=0;strokeColor=none;align=left;verticalAlign=middle;spacingLeft=7;spacingRight=10;overflow=hidden;points=[[0,0.5],[1,0.5]];portConstraint=eastwest;rotatable=0;whiteSpace=wrap;html=1;fillColor=none;fontColor=#666666;fontSize=17;" vertex="1" parent="kgRHYQhIqhMZuhtwXO5x-145">
          <mxGeometry y="190" width="41" height="20" as="geometry" />
        </mxCell>
        <mxCell id="kgRHYQhIqhMZuhtwXO5x-155" value="10" style="text;spacing=0;strokeColor=none;align=left;verticalAlign=middle;spacingLeft=7;spacingRight=10;overflow=hidden;points=[[0,0.5],[1,0.5]];portConstraint=eastwest;rotatable=0;whiteSpace=wrap;html=1;fillColor=none;fontColor=#666666;fontSize=17;" vertex="1" parent="kgRHYQhIqhMZuhtwXO5x-145">
          <mxGeometry y="210" width="41" height="20" as="geometry" />
        </mxCell>
        <mxCell id="kgRHYQhIqhMZuhtwXO5x-156" value="11" style="text;spacing=0;strokeColor=none;align=left;verticalAlign=middle;spacingLeft=7;spacingRight=10;overflow=hidden;points=[[0,0.5],[1,0.5]];portConstraint=eastwest;rotatable=0;whiteSpace=wrap;html=1;fillColor=none;fontColor=#666666;fontSize=17;" vertex="1" parent="kgRHYQhIqhMZuhtwXO5x-145">
          <mxGeometry y="230" width="41" height="20" as="geometry" />
        </mxCell>
        <mxCell id="kgRHYQhIqhMZuhtwXO5x-157" value="12" style="text;spacing=0;strokeColor=none;align=left;verticalAlign=middle;spacingLeft=7;spacingRight=10;overflow=hidden;points=[[0,0.5],[1,0.5]];portConstraint=eastwest;rotatable=0;whiteSpace=wrap;html=1;fillColor=none;fontColor=#666666;fontSize=17;" vertex="1" parent="kgRHYQhIqhMZuhtwXO5x-145">
          <mxGeometry y="250" width="41" height="20" as="geometry" />
        </mxCell>
        <mxCell id="tencsmP0ulLHr0o0Hx9v-73" value="." style="text;spacing=0;strokeColor=none;align=left;verticalAlign=middle;spacingLeft=7;spacingRight=10;overflow=hidden;points=[[0,0.5],[1,0.5]];portConstraint=eastwest;rotatable=0;whiteSpace=wrap;html=1;fillColor=none;fontColor=#666666;fontSize=17;fontStyle=1" vertex="1" parent="kgRHYQhIqhMZuhtwXO5x-145">
          <mxGeometry y="270" width="41" height="20" as="geometry" />
        </mxCell>
        <mxCell id="tencsmP0ulLHr0o0Hx9v-74" value="." style="text;spacing=0;strokeColor=none;align=left;verticalAlign=middle;spacingLeft=7;spacingRight=10;overflow=hidden;points=[[0,0.5],[1,0.5]];portConstraint=eastwest;rotatable=0;whiteSpace=wrap;html=1;fillColor=none;fontColor=#666666;fontSize=17;fontStyle=1" vertex="1" parent="kgRHYQhIqhMZuhtwXO5x-145">
          <mxGeometry y="290" width="41" height="20" as="geometry" />
        </mxCell>
        <mxCell id="tencsmP0ulLHr0o0Hx9v-75" value="." style="text;spacing=0;strokeColor=none;align=left;verticalAlign=middle;spacingLeft=7;spacingRight=10;overflow=hidden;points=[[0,0.5],[1,0.5]];portConstraint=eastwest;rotatable=0;whiteSpace=wrap;html=1;fillColor=none;fontColor=#666666;fontSize=17;fontStyle=1" vertex="1" parent="kgRHYQhIqhMZuhtwXO5x-145">
          <mxGeometry y="310" width="41" height="20" as="geometry" />
        </mxCell>
        <mxCell id="kgRHYQhIqhMZuhtwXO5x-158" value="" style="text;spacing=0;strokeColor=none;align=left;verticalAlign=middle;spacingLeft=7;spacingRight=10;overflow=hidden;points=[[0,0.5],[1,0.5]];portConstraint=eastwest;rotatable=0;whiteSpace=wrap;html=1;fillColor=none;fontColor=#666666;fontSize=17;" vertex="1" parent="kgRHYQhIqhMZuhtwXO5x-145">
          <mxGeometry y="330" width="41" height="20" as="geometry" />
        </mxCell>
        <mxCell id="tencsmP0ulLHr0o0Hx9v-1" value="ConfiguraciÃ³n" style="swimlane;strokeColor=#999999;swimlaneFillColor=#FFFFFF;fillColor=#ffffff;fontColor=#008CFF;fontStyle=0;childLayout=stackLayout;horizontal=1;startSize=30;horizontalStack=0;resizeParent=1;resizeParentMax=0;resizeLast=0;collapsible=0;marginBottom=0;whiteSpace=wrap;html=1;fontSize=17;" vertex="1" parent="1">
          <mxGeometry x="590" y="220" width="110" height="350" as="geometry" />
        </mxCell>
        <mxCell id="tencsmP0ulLHr0o0Hx9v-2" value="Item 1" style="text;spacing=0;strokeColor=none;align=left;verticalAlign=middle;spacingLeft=7;spacingRight=10;overflow=hidden;points=[[0,0.5],[1,0.5]];portConstraint=eastwest;rotatable=0;whiteSpace=wrap;html=1;fillColor=none;fontColor=#666666;fontSize=17;" vertex="1" parent="tencsmP0ulLHr0o0Hx9v-1">
          <mxGeometry y="30" width="110" height="20" as="geometry" />
        </mxCell>
        <mxCell id="tencsmP0ulLHr0o0Hx9v-3" value="Item 2" style="text;spacing=0;strokeColor=none;align=left;verticalAlign=middle;spacingLeft=7;spacingRight=10;overflow=hidden;points=[[0,0.5],[1,0.5]];portConstraint=eastwest;rotatable=0;whiteSpace=wrap;html=1;rSize=5;fillColor=none;fontColor=#666666;fontSize=17;" vertex="1" parent="tencsmP0ulLHr0o0Hx9v-1">
          <mxGeometry y="50" width="110" height="20" as="geometry" />
        </mxCell>
        <mxCell id="tencsmP0ulLHr0o0Hx9v-4" value="Item 3" style="text;spacing=0;strokeColor=none;align=left;verticalAlign=middle;spacingLeft=7;spacingRight=10;overflow=hidden;points=[[0,0.5],[1,0.5]];portConstraint=eastwest;rotatable=0;whiteSpace=wrap;html=1;rSize=5;fillColor=#DDEEFF;fontColor=#666666;fontSize=17;" vertex="1" parent="tencsmP0ulLHr0o0Hx9v-1">
          <mxGeometry y="70" width="110" height="20" as="geometry" />
        </mxCell>
        <mxCell id="tencsmP0ulLHr0o0Hx9v-5" value="Item 4" style="text;spacing=0;strokeColor=none;align=left;verticalAlign=middle;spacingLeft=7;spacingRight=10;overflow=hidden;points=[[0,0.5],[1,0.5]];portConstraint=eastwest;rotatable=0;whiteSpace=wrap;html=1;fillColor=none;fontColor=#666666;fontSize=17;" vertex="1" parent="tencsmP0ulLHr0o0Hx9v-1">
          <mxGeometry y="90" width="110" height="20" as="geometry" />
        </mxCell>
        <mxCell id="tencsmP0ulLHr0o0Hx9v-6" value="Item 5" style="text;spacing=0;strokeColor=none;align=left;verticalAlign=middle;spacingLeft=7;spacingRight=10;overflow=hidden;points=[[0,0.5],[1,0.5]];portConstraint=eastwest;rotatable=0;whiteSpace=wrap;html=1;fillColor=none;fontColor=#666666;fontSize=17;" vertex="1" parent="tencsmP0ulLHr0o0Hx9v-1">
          <mxGeometry y="110" width="110" height="20" as="geometry" />
        </mxCell>
        <mxCell id="tencsmP0ulLHr0o0Hx9v-7" value="Item 4" style="text;spacing=0;strokeColor=none;align=left;verticalAlign=middle;spacingLeft=7;spacingRight=10;overflow=hidden;points=[[0,0.5],[1,0.5]];portConstraint=eastwest;rotatable=0;whiteSpace=wrap;html=1;fillColor=none;fontColor=#666666;fontSize=17;" vertex="1" parent="tencsmP0ulLHr0o0Hx9v-1">
          <mxGeometry y="130" width="110" height="20" as="geometry" />
        </mxCell>
        <mxCell id="tencsmP0ulLHr0o0Hx9v-8" value="Item 4" style="text;spacing=0;strokeColor=none;align=left;verticalAlign=middle;spacingLeft=7;spacingRight=10;overflow=hidden;points=[[0,0.5],[1,0.5]];portConstraint=eastwest;rotatable=0;whiteSpace=wrap;html=1;fillColor=none;fontColor=#666666;fontSize=17;" vertex="1" parent="tencsmP0ulLHr0o0Hx9v-1">
          <mxGeometry y="150" width="110" height="20" as="geometry" />
        </mxCell>
        <mxCell id="tencsmP0ulLHr0o0Hx9v-9" value="Item 4" style="text;spacing=0;strokeColor=none;align=left;verticalAlign=middle;spacingLeft=7;spacingRight=10;overflow=hidden;points=[[0,0.5],[1,0.5]];portConstraint=eastwest;rotatable=0;whiteSpace=wrap;html=1;fillColor=none;fontColor=#666666;fontSize=17;" vertex="1" parent="tencsmP0ulLHr0o0Hx9v-1">
          <mxGeometry y="170" width="110" height="20" as="geometry" />
        </mxCell>
        <mxCell id="tencsmP0ulLHr0o0Hx9v-10" value="Item 4" style="text;spacing=0;strokeColor=none;align=left;verticalAlign=middle;spacingLeft=7;spacingRight=10;overflow=hidden;points=[[0,0.5],[1,0.5]];portConstraint=eastwest;rotatable=0;whiteSpace=wrap;html=1;fillColor=none;fontColor=#666666;fontSize=17;" vertex="1" parent="tencsmP0ulLHr0o0Hx9v-1">
          <mxGeometry y="190" width="110" height="20" as="geometry" />
        </mxCell>
        <mxCell id="tencsmP0ulLHr0o0Hx9v-11" value="Item 4" style="text;spacing=0;strokeColor=none;align=left;verticalAlign=middle;spacingLeft=7;spacingRight=10;overflow=hidden;points=[[0,0.5],[1,0.5]];portConstraint=eastwest;rotatable=0;whiteSpace=wrap;html=1;fillColor=none;fontColor=#666666;fontSize=17;" vertex="1" parent="tencsmP0ulLHr0o0Hx9v-1">
          <mxGeometry y="210" width="110" height="20" as="geometry" />
        </mxCell>
        <mxCell id="tencsmP0ulLHr0o0Hx9v-12" value="Item 4" style="text;spacing=0;strokeColor=none;align=left;verticalAlign=middle;spacingLeft=7;spacingRight=10;overflow=hidden;points=[[0,0.5],[1,0.5]];portConstraint=eastwest;rotatable=0;whiteSpace=wrap;html=1;fillColor=none;fontColor=#666666;fontSize=17;" vertex="1" parent="tencsmP0ulLHr0o0Hx9v-1">
          <mxGeometry y="230" width="110" height="20" as="geometry" />
        </mxCell>
        <mxCell id="tencsmP0ulLHr0o0Hx9v-13" value="Item 4" style="text;spacing=0;strokeColor=none;align=left;verticalAlign=middle;spacingLeft=7;spacingRight=10;overflow=hidden;points=[[0,0.5],[1,0.5]];portConstraint=eastwest;rotatable=0;whiteSpace=wrap;html=1;fillColor=none;fontColor=#666666;fontSize=17;" vertex="1" parent="tencsmP0ulLHr0o0Hx9v-1">
          <mxGeometry y="250" width="110" height="20" as="geometry" />
        </mxCell>
        <mxCell id="tencsmP0ulLHr0o0Hx9v-14" value="" style="text;spacing=0;strokeColor=none;align=left;verticalAlign=middle;spacingLeft=7;spacingRight=10;overflow=hidden;points=[[0,0.5],[1,0.5]];portConstraint=eastwest;rotatable=0;whiteSpace=wrap;html=1;fillColor=none;fontColor=#666666;fontSize=17;" vertex="1" parent="tencsmP0ulLHr0o0Hx9v-1">
          <mxGeometry y="270" width="110" height="80" as="geometry" />
        </mxCell>
        <mxCell id="tencsmP0ulLHr0o0Hx9v-15" value="Tiempo" style="swimlane;strokeColor=#999999;swimlaneFillColor=#FFFFFF;fillColor=#ffffff;fontColor=#008CFF;fontStyle=0;childLayout=stackLayout;horizontal=1;startSize=30;horizontalStack=0;resizeParent=1;resizeParentMax=0;resizeLast=0;collapsible=0;marginBottom=0;whiteSpace=wrap;html=1;fontSize=17;" vertex="1" parent="1">
          <mxGeometry x="700" y="220" width="70" height="350" as="geometry" />
        </mxCell>
        <mxCell id="tencsmP0ulLHr0o0Hx9v-16" value="Item 1" style="text;spacing=0;strokeColor=none;align=left;verticalAlign=middle;spacingLeft=7;spacingRight=10;overflow=hidden;points=[[0,0.5],[1,0.5]];portConstraint=eastwest;rotatable=0;whiteSpace=wrap;html=1;fillColor=none;fontColor=#666666;fontSize=17;" vertex="1" parent="tencsmP0ulLHr0o0Hx9v-15">
          <mxGeometry y="30" width="70" height="20" as="geometry" />
        </mxCell>
        <mxCell id="tencsmP0ulLHr0o0Hx9v-17" value="Item 2" style="text;spacing=0;strokeColor=none;align=left;verticalAlign=middle;spacingLeft=7;spacingRight=10;overflow=hidden;points=[[0,0.5],[1,0.5]];portConstraint=eastwest;rotatable=0;whiteSpace=wrap;html=1;rSize=5;fillColor=none;fontColor=#666666;fontSize=17;" vertex="1" parent="tencsmP0ulLHr0o0Hx9v-15">
          <mxGeometry y="50" width="70" height="20" as="geometry" />
        </mxCell>
        <mxCell id="tencsmP0ulLHr0o0Hx9v-18" value="Item 3" style="text;spacing=0;strokeColor=none;align=left;verticalAlign=middle;spacingLeft=7;spacingRight=10;overflow=hidden;points=[[0,0.5],[1,0.5]];portConstraint=eastwest;rotatable=0;whiteSpace=wrap;html=1;rSize=5;fillColor=#DDEEFF;fontColor=#666666;fontSize=17;" vertex="1" parent="tencsmP0ulLHr0o0Hx9v-15">
          <mxGeometry y="70" width="70" height="20" as="geometry" />
        </mxCell>
        <mxCell id="tencsmP0ulLHr0o0Hx9v-19" value="Item 4" style="text;spacing=0;strokeColor=none;align=left;verticalAlign=middle;spacingLeft=7;spacingRight=10;overflow=hidden;points=[[0,0.5],[1,0.5]];portConstraint=eastwest;rotatable=0;whiteSpace=wrap;html=1;fillColor=none;fontColor=#666666;fontSize=17;" vertex="1" parent="tencsmP0ulLHr0o0Hx9v-15">
          <mxGeometry y="90" width="70" height="20" as="geometry" />
        </mxCell>
        <mxCell id="tencsmP0ulLHr0o0Hx9v-20" value="Item 4" style="text;spacing=0;strokeColor=none;align=left;verticalAlign=middle;spacingLeft=7;spacingRight=10;overflow=hidden;points=[[0,0.5],[1,0.5]];portConstraint=eastwest;rotatable=0;whiteSpace=wrap;html=1;fillColor=none;fontColor=#666666;fontSize=17;" vertex="1" parent="tencsmP0ulLHr0o0Hx9v-15">
          <mxGeometry y="110" width="70" height="20" as="geometry" />
        </mxCell>
        <mxCell id="tencsmP0ulLHr0o0Hx9v-21" value="Item 4" style="text;spacing=0;strokeColor=none;align=left;verticalAlign=middle;spacingLeft=7;spacingRight=10;overflow=hidden;points=[[0,0.5],[1,0.5]];portConstraint=eastwest;rotatable=0;whiteSpace=wrap;html=1;fillColor=none;fontColor=#666666;fontSize=17;" vertex="1" parent="tencsmP0ulLHr0o0Hx9v-15">
          <mxGeometry y="130" width="70" height="20" as="geometry" />
        </mxCell>
        <mxCell id="tencsmP0ulLHr0o0Hx9v-22" value="Item 4" style="text;spacing=0;strokeColor=none;align=left;verticalAlign=middle;spacingLeft=7;spacingRight=10;overflow=hidden;points=[[0,0.5],[1,0.5]];portConstraint=eastwest;rotatable=0;whiteSpace=wrap;html=1;fillColor=none;fontColor=#666666;fontSize=17;" vertex="1" parent="tencsmP0ulLHr0o0Hx9v-15">
          <mxGeometry y="150" width="70" height="20" as="geometry" />
        </mxCell>
        <mxCell id="tencsmP0ulLHr0o0Hx9v-23" value="Item 4" style="text;spacing=0;strokeColor=none;align=left;verticalAlign=middle;spacingLeft=7;spacingRight=10;overflow=hidden;points=[[0,0.5],[1,0.5]];portConstraint=eastwest;rotatable=0;whiteSpace=wrap;html=1;fillColor=none;fontColor=#666666;fontSize=17;" vertex="1" parent="tencsmP0ulLHr0o0Hx9v-15">
          <mxGeometry y="170" width="70" height="20" as="geometry" />
        </mxCell>
        <mxCell id="tencsmP0ulLHr0o0Hx9v-24" value="Item 4" style="text;spacing=0;strokeColor=none;align=left;verticalAlign=middle;spacingLeft=7;spacingRight=10;overflow=hidden;points=[[0,0.5],[1,0.5]];portConstraint=eastwest;rotatable=0;whiteSpace=wrap;html=1;fillColor=none;fontColor=#666666;fontSize=17;" vertex="1" parent="tencsmP0ulLHr0o0Hx9v-15">
          <mxGeometry y="190" width="70" height="20" as="geometry" />
        </mxCell>
        <mxCell id="tencsmP0ulLHr0o0Hx9v-25" value="Item 4" style="text;spacing=0;strokeColor=none;align=left;verticalAlign=middle;spacingLeft=7;spacingRight=10;overflow=hidden;points=[[0,0.5],[1,0.5]];portConstraint=eastwest;rotatable=0;whiteSpace=wrap;html=1;fillColor=none;fontColor=#666666;fontSize=17;" vertex="1" parent="tencsmP0ulLHr0o0Hx9v-15">
          <mxGeometry y="210" width="70" height="20" as="geometry" />
        </mxCell>
        <mxCell id="tencsmP0ulLHr0o0Hx9v-26" value="Item 4" style="text;spacing=0;strokeColor=none;align=left;verticalAlign=middle;spacingLeft=7;spacingRight=10;overflow=hidden;points=[[0,0.5],[1,0.5]];portConstraint=eastwest;rotatable=0;whiteSpace=wrap;html=1;fillColor=none;fontColor=#666666;fontSize=17;" vertex="1" parent="tencsmP0ulLHr0o0Hx9v-15">
          <mxGeometry y="230" width="70" height="20" as="geometry" />
        </mxCell>
        <mxCell id="tencsmP0ulLHr0o0Hx9v-27" value="Item 4" style="text;spacing=0;strokeColor=none;align=left;verticalAlign=middle;spacingLeft=7;spacingRight=10;overflow=hidden;points=[[0,0.5],[1,0.5]];portConstraint=eastwest;rotatable=0;whiteSpace=wrap;html=1;fillColor=none;fontColor=#666666;fontSize=17;" vertex="1" parent="tencsmP0ulLHr0o0Hx9v-15">
          <mxGeometry y="250" width="70" height="20" as="geometry" />
        </mxCell>
        <mxCell id="tencsmP0ulLHr0o0Hx9v-28" value="" style="text;spacing=0;strokeColor=none;align=left;verticalAlign=middle;spacingLeft=7;spacingRight=10;overflow=hidden;points=[[0,0.5],[1,0.5]];portConstraint=eastwest;rotatable=0;whiteSpace=wrap;html=1;fillColor=none;fontColor=#666666;fontSize=17;" vertex="1" parent="tencsmP0ulLHr0o0Hx9v-15">
          <mxGeometry y="270" width="70" height="80" as="geometry" />
        </mxCell>
        <mxCell id="tencsmP0ulLHr0o0Hx9v-29" value="CPI" style="swimlane;strokeColor=#999999;swimlaneFillColor=#FFFFFF;fillColor=#ffffff;fontColor=#008CFF;fontStyle=0;childLayout=stackLayout;horizontal=1;startSize=30;horizontalStack=0;resizeParent=1;resizeParentMax=0;resizeLast=0;collapsible=0;marginBottom=0;whiteSpace=wrap;html=1;fontSize=17;" vertex="1" parent="1">
          <mxGeometry x="770" y="220" width="70" height="350" as="geometry" />
        </mxCell>
        <mxCell id="tencsmP0ulLHr0o0Hx9v-30" value="Item 1" style="text;spacing=0;strokeColor=none;align=left;verticalAlign=middle;spacingLeft=7;spacingRight=10;overflow=hidden;points=[[0,0.5],[1,0.5]];portConstraint=eastwest;rotatable=0;whiteSpace=wrap;html=1;fillColor=none;fontColor=#666666;fontSize=17;" vertex="1" parent="tencsmP0ulLHr0o0Hx9v-29">
          <mxGeometry y="30" width="70" height="20" as="geometry" />
        </mxCell>
        <mxCell id="tencsmP0ulLHr0o0Hx9v-31" value="Item 2" style="text;spacing=0;strokeColor=none;align=left;verticalAlign=middle;spacingLeft=7;spacingRight=10;overflow=hidden;points=[[0,0.5],[1,0.5]];portConstraint=eastwest;rotatable=0;whiteSpace=wrap;html=1;rSize=5;fillColor=none;fontColor=#666666;fontSize=17;" vertex="1" parent="tencsmP0ulLHr0o0Hx9v-29">
          <mxGeometry y="50" width="70" height="20" as="geometry" />
        </mxCell>
        <mxCell id="tencsmP0ulLHr0o0Hx9v-32" value="Item 3" style="text;spacing=0;strokeColor=none;align=left;verticalAlign=middle;spacingLeft=7;spacingRight=10;overflow=hidden;points=[[0,0.5],[1,0.5]];portConstraint=eastwest;rotatable=0;whiteSpace=wrap;html=1;rSize=5;fillColor=#DDEEFF;fontColor=#666666;fontSize=17;" vertex="1" parent="tencsmP0ulLHr0o0Hx9v-29">
          <mxGeometry y="70" width="70" height="20" as="geometry" />
        </mxCell>
        <mxCell id="tencsmP0ulLHr0o0Hx9v-33" value="Item 4" style="text;spacing=0;strokeColor=none;align=left;verticalAlign=middle;spacingLeft=7;spacingRight=10;overflow=hidden;points=[[0,0.5],[1,0.5]];portConstraint=eastwest;rotatable=0;whiteSpace=wrap;html=1;fillColor=none;fontColor=#666666;fontSize=17;" vertex="1" parent="tencsmP0ulLHr0o0Hx9v-29">
          <mxGeometry y="90" width="70" height="20" as="geometry" />
        </mxCell>
        <mxCell id="tencsmP0ulLHr0o0Hx9v-34" value="Item 4" style="text;spacing=0;strokeColor=none;align=left;verticalAlign=middle;spacingLeft=7;spacingRight=10;overflow=hidden;points=[[0,0.5],[1,0.5]];portConstraint=eastwest;rotatable=0;whiteSpace=wrap;html=1;fillColor=none;fontColor=#666666;fontSize=17;" vertex="1" parent="tencsmP0ulLHr0o0Hx9v-29">
          <mxGeometry y="110" width="70" height="20" as="geometry" />
        </mxCell>
        <mxCell id="tencsmP0ulLHr0o0Hx9v-35" value="Item 4" style="text;spacing=0;strokeColor=none;align=left;verticalAlign=middle;spacingLeft=7;spacingRight=10;overflow=hidden;points=[[0,0.5],[1,0.5]];portConstraint=eastwest;rotatable=0;whiteSpace=wrap;html=1;fillColor=none;fontColor=#666666;fontSize=17;" vertex="1" parent="tencsmP0ulLHr0o0Hx9v-29">
          <mxGeometry y="130" width="70" height="20" as="geometry" />
        </mxCell>
        <mxCell id="tencsmP0ulLHr0o0Hx9v-36" value="Item 4" style="text;spacing=0;strokeColor=none;align=left;verticalAlign=middle;spacingLeft=7;spacingRight=10;overflow=hidden;points=[[0,0.5],[1,0.5]];portConstraint=eastwest;rotatable=0;whiteSpace=wrap;html=1;fillColor=none;fontColor=#666666;fontSize=17;" vertex="1" parent="tencsmP0ulLHr0o0Hx9v-29">
          <mxGeometry y="150" width="70" height="20" as="geometry" />
        </mxCell>
        <mxCell id="tencsmP0ulLHr0o0Hx9v-37" value="Item 4" style="text;spacing=0;strokeColor=none;align=left;verticalAlign=middle;spacingLeft=7;spacingRight=10;overflow=hidden;points=[[0,0.5],[1,0.5]];portConstraint=eastwest;rotatable=0;whiteSpace=wrap;html=1;fillColor=none;fontColor=#666666;fontSize=17;" vertex="1" parent="tencsmP0ulLHr0o0Hx9v-29">
          <mxGeometry y="170" width="70" height="20" as="geometry" />
        </mxCell>
        <mxCell id="tencsmP0ulLHr0o0Hx9v-38" value="Item 4" style="text;spacing=0;strokeColor=none;align=left;verticalAlign=middle;spacingLeft=7;spacingRight=10;overflow=hidden;points=[[0,0.5],[1,0.5]];portConstraint=eastwest;rotatable=0;whiteSpace=wrap;html=1;fillColor=none;fontColor=#666666;fontSize=17;" vertex="1" parent="tencsmP0ulLHr0o0Hx9v-29">
          <mxGeometry y="190" width="70" height="20" as="geometry" />
        </mxCell>
        <mxCell id="tencsmP0ulLHr0o0Hx9v-39" value="Item 4" style="text;spacing=0;strokeColor=none;align=left;verticalAlign=middle;spacingLeft=7;spacingRight=10;overflow=hidden;points=[[0,0.5],[1,0.5]];portConstraint=eastwest;rotatable=0;whiteSpace=wrap;html=1;fillColor=none;fontColor=#666666;fontSize=17;" vertex="1" parent="tencsmP0ulLHr0o0Hx9v-29">
          <mxGeometry y="210" width="70" height="20" as="geometry" />
        </mxCell>
        <mxCell id="tencsmP0ulLHr0o0Hx9v-40" value="Item 4" style="text;spacing=0;strokeColor=none;align=left;verticalAlign=middle;spacingLeft=7;spacingRight=10;overflow=hidden;points=[[0,0.5],[1,0.5]];portConstraint=eastwest;rotatable=0;whiteSpace=wrap;html=1;fillColor=none;fontColor=#666666;fontSize=17;" vertex="1" parent="tencsmP0ulLHr0o0Hx9v-29">
          <mxGeometry y="230" width="70" height="20" as="geometry" />
        </mxCell>
        <mxCell id="tencsmP0ulLHr0o0Hx9v-41" value="Item 4" style="text;spacing=0;strokeColor=none;align=left;verticalAlign=middle;spacingLeft=7;spacingRight=10;overflow=hidden;points=[[0,0.5],[1,0.5]];portConstraint=eastwest;rotatable=0;whiteSpace=wrap;html=1;fillColor=none;fontColor=#666666;fontSize=17;" vertex="1" parent="tencsmP0ulLHr0o0Hx9v-29">
          <mxGeometry y="250" width="70" height="20" as="geometry" />
        </mxCell>
        <mxCell id="tencsmP0ulLHr0o0Hx9v-42" value="" style="text;spacing=0;strokeColor=none;align=left;verticalAlign=middle;spacingLeft=7;spacingRight=10;overflow=hidden;points=[[0,0.5],[1,0.5]];portConstraint=eastwest;rotatable=0;whiteSpace=wrap;html=1;fillColor=none;fontColor=#666666;fontSize=17;" vertex="1" parent="tencsmP0ulLHr0o0Hx9v-29">
          <mxGeometry y="270" width="70" height="80" as="geometry" />
        </mxCell>
        <mxCell id="tencsmP0ulLHr0o0Hx9v-43" value="IPC" style="swimlane;strokeColor=#999999;swimlaneFillColor=#FFFFFF;fillColor=#ffffff;fontColor=#008CFF;fontStyle=0;childLayout=stackLayout;horizontal=1;startSize=30;horizontalStack=0;resizeParent=1;resizeParentMax=0;resizeLast=0;collapsible=0;marginBottom=0;whiteSpace=wrap;html=1;fontSize=17;" vertex="1" parent="1">
          <mxGeometry x="840" y="220" width="70" height="350" as="geometry" />
        </mxCell>
        <mxCell id="tencsmP0ulLHr0o0Hx9v-44" value="Item 1" style="text;spacing=0;strokeColor=none;align=left;verticalAlign=middle;spacingLeft=7;spacingRight=10;overflow=hidden;points=[[0,0.5],[1,0.5]];portConstraint=eastwest;rotatable=0;whiteSpace=wrap;html=1;fillColor=none;fontColor=#666666;fontSize=17;" vertex="1" parent="tencsmP0ulLHr0o0Hx9v-43">
          <mxGeometry y="30" width="70" height="20" as="geometry" />
        </mxCell>
        <mxCell id="tencsmP0ulLHr0o0Hx9v-45" value="Item 2" style="text;spacing=0;strokeColor=none;align=left;verticalAlign=middle;spacingLeft=7;spacingRight=10;overflow=hidden;points=[[0,0.5],[1,0.5]];portConstraint=eastwest;rotatable=0;whiteSpace=wrap;html=1;rSize=5;fillColor=none;fontColor=#666666;fontSize=17;" vertex="1" parent="tencsmP0ulLHr0o0Hx9v-43">
          <mxGeometry y="50" width="70" height="20" as="geometry" />
        </mxCell>
        <mxCell id="tencsmP0ulLHr0o0Hx9v-46" value="Item 3" style="text;spacing=0;strokeColor=none;align=left;verticalAlign=middle;spacingLeft=7;spacingRight=10;overflow=hidden;points=[[0,0.5],[1,0.5]];portConstraint=eastwest;rotatable=0;whiteSpace=wrap;html=1;rSize=5;fillColor=#DDEEFF;fontColor=#666666;fontSize=17;" vertex="1" parent="tencsmP0ulLHr0o0Hx9v-43">
          <mxGeometry y="70" width="70" height="20" as="geometry" />
        </mxCell>
        <mxCell id="tencsmP0ulLHr0o0Hx9v-47" value="Item 4" style="text;spacing=0;strokeColor=none;align=left;verticalAlign=middle;spacingLeft=7;spacingRight=10;overflow=hidden;points=[[0,0.5],[1,0.5]];portConstraint=eastwest;rotatable=0;whiteSpace=wrap;html=1;fillColor=none;fontColor=#666666;fontSize=17;" vertex="1" parent="tencsmP0ulLHr0o0Hx9v-43">
          <mxGeometry y="90" width="70" height="20" as="geometry" />
        </mxCell>
        <mxCell id="tencsmP0ulLHr0o0Hx9v-48" value="Item 4" style="text;spacing=0;strokeColor=none;align=left;verticalAlign=middle;spacingLeft=7;spacingRight=10;overflow=hidden;points=[[0,0.5],[1,0.5]];portConstraint=eastwest;rotatable=0;whiteSpace=wrap;html=1;fillColor=none;fontColor=#666666;fontSize=17;" vertex="1" parent="tencsmP0ulLHr0o0Hx9v-43">
          <mxGeometry y="110" width="70" height="20" as="geometry" />
        </mxCell>
        <mxCell id="tencsmP0ulLHr0o0Hx9v-49" value="Item 4" style="text;spacing=0;strokeColor=none;align=left;verticalAlign=middle;spacingLeft=7;spacingRight=10;overflow=hidden;points=[[0,0.5],[1,0.5]];portConstraint=eastwest;rotatable=0;whiteSpace=wrap;html=1;fillColor=none;fontColor=#666666;fontSize=17;" vertex="1" parent="tencsmP0ulLHr0o0Hx9v-43">
          <mxGeometry y="130" width="70" height="20" as="geometry" />
        </mxCell>
        <mxCell id="tencsmP0ulLHr0o0Hx9v-50" value="Item 4" style="text;spacing=0;strokeColor=none;align=left;verticalAlign=middle;spacingLeft=7;spacingRight=10;overflow=hidden;points=[[0,0.5],[1,0.5]];portConstraint=eastwest;rotatable=0;whiteSpace=wrap;html=1;fillColor=none;fontColor=#666666;fontSize=17;" vertex="1" parent="tencsmP0ulLHr0o0Hx9v-43">
          <mxGeometry y="150" width="70" height="20" as="geometry" />
        </mxCell>
        <mxCell id="tencsmP0ulLHr0o0Hx9v-51" value="Item 4" style="text;spacing=0;strokeColor=none;align=left;verticalAlign=middle;spacingLeft=7;spacingRight=10;overflow=hidden;points=[[0,0.5],[1,0.5]];portConstraint=eastwest;rotatable=0;whiteSpace=wrap;html=1;fillColor=none;fontColor=#666666;fontSize=17;" vertex="1" parent="tencsmP0ulLHr0o0Hx9v-43">
          <mxGeometry y="170" width="70" height="20" as="geometry" />
        </mxCell>
        <mxCell id="tencsmP0ulLHr0o0Hx9v-52" value="Item 4" style="text;spacing=0;strokeColor=none;align=left;verticalAlign=middle;spacingLeft=7;spacingRight=10;overflow=hidden;points=[[0,0.5],[1,0.5]];portConstraint=eastwest;rotatable=0;whiteSpace=wrap;html=1;fillColor=none;fontColor=#666666;fontSize=17;" vertex="1" parent="tencsmP0ulLHr0o0Hx9v-43">
          <mxGeometry y="190" width="70" height="20" as="geometry" />
        </mxCell>
        <mxCell id="tencsmP0ulLHr0o0Hx9v-53" value="Item 4" style="text;spacing=0;strokeColor=none;align=left;verticalAlign=middle;spacingLeft=7;spacingRight=10;overflow=hidden;points=[[0,0.5],[1,0.5]];portConstraint=eastwest;rotatable=0;whiteSpace=wrap;html=1;fillColor=none;fontColor=#666666;fontSize=17;" vertex="1" parent="tencsmP0ulLHr0o0Hx9v-43">
          <mxGeometry y="210" width="70" height="20" as="geometry" />
        </mxCell>
        <mxCell id="tencsmP0ulLHr0o0Hx9v-54" value="Item 4" style="text;spacing=0;strokeColor=none;align=left;verticalAlign=middle;spacingLeft=7;spacingRight=10;overflow=hidden;points=[[0,0.5],[1,0.5]];portConstraint=eastwest;rotatable=0;whiteSpace=wrap;html=1;fillColor=none;fontColor=#666666;fontSize=17;" vertex="1" parent="tencsmP0ulLHr0o0Hx9v-43">
          <mxGeometry y="230" width="70" height="20" as="geometry" />
        </mxCell>
        <mxCell id="tencsmP0ulLHr0o0Hx9v-55" value="Item 4" style="text;spacing=0;strokeColor=none;align=left;verticalAlign=middle;spacingLeft=7;spacingRight=10;overflow=hidden;points=[[0,0.5],[1,0.5]];portConstraint=eastwest;rotatable=0;whiteSpace=wrap;html=1;fillColor=none;fontColor=#666666;fontSize=17;" vertex="1" parent="tencsmP0ulLHr0o0Hx9v-43">
          <mxGeometry y="250" width="70" height="20" as="geometry" />
        </mxCell>
        <mxCell id="tencsmP0ulLHr0o0Hx9v-56" value="" style="text;spacing=0;strokeColor=none;align=left;verticalAlign=middle;spacingLeft=7;spacingRight=10;overflow=hidden;points=[[0,0.5],[1,0.5]];portConstraint=eastwest;rotatable=0;whiteSpace=wrap;html=1;fillColor=none;fontColor=#666666;fontSize=17;" vertex="1" parent="tencsmP0ulLHr0o0Hx9v-43">
          <mxGeometry y="270" width="70" height="80" as="geometry" />
        </mxCell>
        <mxCell id="tencsmP0ulLHr0o0Hx9v-57" value="Frecuencia" style="swimlane;strokeColor=#999999;swimlaneFillColor=#FFFFFF;fillColor=#ffffff;fontColor=#008CFF;fontStyle=0;childLayout=stackLayout;horizontal=1;startSize=30;horizontalStack=0;resizeParent=1;resizeParentMax=0;resizeLast=0;collapsible=0;marginBottom=0;whiteSpace=wrap;html=1;fontSize=17;" vertex="1" parent="1">
          <mxGeometry x="910" y="220" width="90" height="350" as="geometry" />
        </mxCell>
        <mxCell id="tencsmP0ulLHr0o0Hx9v-58" value="Item 1" style="text;spacing=0;strokeColor=none;align=left;verticalAlign=middle;spacingLeft=7;spacingRight=10;overflow=hidden;points=[[0,0.5],[1,0.5]];portConstraint=eastwest;rotatable=0;whiteSpace=wrap;html=1;fillColor=none;fontColor=#666666;fontSize=17;" vertex="1" parent="tencsmP0ulLHr0o0Hx9v-57">
          <mxGeometry y="30" width="90" height="20" as="geometry" />
        </mxCell>
        <mxCell id="tencsmP0ulLHr0o0Hx9v-59" value="Item 2" style="text;spacing=0;strokeColor=none;align=left;verticalAlign=middle;spacingLeft=7;spacingRight=10;overflow=hidden;points=[[0,0.5],[1,0.5]];portConstraint=eastwest;rotatable=0;whiteSpace=wrap;html=1;rSize=5;fillColor=none;fontColor=#666666;fontSize=17;" vertex="1" parent="tencsmP0ulLHr0o0Hx9v-57">
          <mxGeometry y="50" width="90" height="20" as="geometry" />
        </mxCell>
        <mxCell id="tencsmP0ulLHr0o0Hx9v-60" value="Item 3" style="text;spacing=0;strokeColor=none;align=left;verticalAlign=middle;spacingLeft=7;spacingRight=10;overflow=hidden;points=[[0,0.5],[1,0.5]];portConstraint=eastwest;rotatable=0;whiteSpace=wrap;html=1;rSize=5;fillColor=#DDEEFF;fontColor=#666666;fontSize=17;" vertex="1" parent="tencsmP0ulLHr0o0Hx9v-57">
          <mxGeometry y="70" width="90" height="20" as="geometry" />
        </mxCell>
        <mxCell id="tencsmP0ulLHr0o0Hx9v-61" value="Item 4" style="text;spacing=0;strokeColor=none;align=left;verticalAlign=middle;spacingLeft=7;spacingRight=10;overflow=hidden;points=[[0,0.5],[1,0.5]];portConstraint=eastwest;rotatable=0;whiteSpace=wrap;html=1;fillColor=none;fontColor=#666666;fontSize=17;" vertex="1" parent="tencsmP0ulLHr0o0Hx9v-57">
          <mxGeometry y="90" width="90" height="20" as="geometry" />
        </mxCell>
        <mxCell id="tencsmP0ulLHr0o0Hx9v-62" value="Item 4" style="text;spacing=0;strokeColor=none;align=left;verticalAlign=middle;spacingLeft=7;spacingRight=10;overflow=hidden;points=[[0,0.5],[1,0.5]];portConstraint=eastwest;rotatable=0;whiteSpace=wrap;html=1;fillColor=none;fontColor=#666666;fontSize=17;" vertex="1" parent="tencsmP0ulLHr0o0Hx9v-57">
          <mxGeometry y="110" width="90" height="20" as="geometry" />
        </mxCell>
        <mxCell id="tencsmP0ulLHr0o0Hx9v-63" value="Item 4" style="text;spacing=0;strokeColor=none;align=left;verticalAlign=middle;spacingLeft=7;spacingRight=10;overflow=hidden;points=[[0,0.5],[1,0.5]];portConstraint=eastwest;rotatable=0;whiteSpace=wrap;html=1;fillColor=none;fontColor=#666666;fontSize=17;" vertex="1" parent="tencsmP0ulLHr0o0Hx9v-57">
          <mxGeometry y="130" width="90" height="20" as="geometry" />
        </mxCell>
        <mxCell id="tencsmP0ulLHr0o0Hx9v-64" value="Item 4" style="text;spacing=0;strokeColor=none;align=left;verticalAlign=middle;spacingLeft=7;spacingRight=10;overflow=hidden;points=[[0,0.5],[1,0.5]];portConstraint=eastwest;rotatable=0;whiteSpace=wrap;html=1;fillColor=none;fontColor=#666666;fontSize=17;" vertex="1" parent="tencsmP0ulLHr0o0Hx9v-57">
          <mxGeometry y="150" width="90" height="20" as="geometry" />
        </mxCell>
        <mxCell id="tencsmP0ulLHr0o0Hx9v-65" value="Item 4" style="text;spacing=0;strokeColor=none;align=left;verticalAlign=middle;spacingLeft=7;spacingRight=10;overflow=hidden;points=[[0,0.5],[1,0.5]];portConstraint=eastwest;rotatable=0;whiteSpace=wrap;html=1;fillColor=none;fontColor=#666666;fontSize=17;" vertex="1" parent="tencsmP0ulLHr0o0Hx9v-57">
          <mxGeometry y="170" width="90" height="20" as="geometry" />
        </mxCell>
        <mxCell id="tencsmP0ulLHr0o0Hx9v-66" value="Item 4" style="text;spacing=0;strokeColor=none;align=left;verticalAlign=middle;spacingLeft=7;spacingRight=10;overflow=hidden;points=[[0,0.5],[1,0.5]];portConstraint=eastwest;rotatable=0;whiteSpace=wrap;html=1;fillColor=none;fontColor=#666666;fontSize=17;" vertex="1" parent="tencsmP0ulLHr0o0Hx9v-57">
          <mxGeometry y="190" width="90" height="20" as="geometry" />
        </mxCell>
        <mxCell id="tencsmP0ulLHr0o0Hx9v-67" value="Item 4" style="text;spacing=0;strokeColor=none;align=left;verticalAlign=middle;spacingLeft=7;spacingRight=10;overflow=hidden;points=[[0,0.5],[1,0.5]];portConstraint=eastwest;rotatable=0;whiteSpace=wrap;html=1;fillColor=none;fontColor=#666666;fontSize=17;" vertex="1" parent="tencsmP0ulLHr0o0Hx9v-57">
          <mxGeometry y="210" width="90" height="20" as="geometry" />
        </mxCell>
        <mxCell id="tencsmP0ulLHr0o0Hx9v-68" value="Item 4" style="text;spacing=0;strokeColor=none;align=left;verticalAlign=middle;spacingLeft=7;spacingRight=10;overflow=hidden;points=[[0,0.5],[1,0.5]];portConstraint=eastwest;rotatable=0;whiteSpace=wrap;html=1;fillColor=none;fontColor=#666666;fontSize=17;" vertex="1" parent="tencsmP0ulLHr0o0Hx9v-57">
          <mxGeometry y="230" width="90" height="20" as="geometry" />
        </mxCell>
        <mxCell id="tencsmP0ulLHr0o0Hx9v-69" value="Item 4" style="text;spacing=0;strokeColor=none;align=left;verticalAlign=middle;spacingLeft=7;spacingRight=10;overflow=hidden;points=[[0,0.5],[1,0.5]];portConstraint=eastwest;rotatable=0;whiteSpace=wrap;html=1;fillColor=none;fontColor=#666666;fontSize=17;" vertex="1" parent="tencsmP0ulLHr0o0Hx9v-57">
          <mxGeometry y="250" width="90" height="20" as="geometry" />
        </mxCell>
        <mxCell id="tencsmP0ulLHr0o0Hx9v-70" value="" style="text;spacing=0;strokeColor=none;align=left;verticalAlign=middle;spacingLeft=7;spacingRight=10;overflow=hidden;points=[[0,0.5],[1,0.5]];portConstraint=eastwest;rotatable=0;whiteSpace=wrap;html=1;fillColor=none;fontColor=#666666;fontSize=17;" vertex="1" parent="tencsmP0ulLHr0o0Hx9v-57">
          <mxGeometry y="270" width="90" height="80" as="geometry" />
        </mxCell>
      </root>
    </mxGraphModel>
  </diagram>
  <diagram id="BFEjkLRLk7wL9ZJZ6Ed6" name="Mockup-VisualizaciondeEtapas">
    <mxGraphModel dx="1170" dy="639" grid="1" gridSize="10" guides="1" tooltips="1" connect="1" arrows="1" fold="1" page="1" pageScale="1" pageWidth="827" pageHeight="1169" math="0" shadow="0">
      <root>
        <mxCell id="0" />
        <mxCell id="1" parent="0" />
        <mxCell id="J1m_tVuhaVCKjhUmoOyZ-1" value="Simulador" style="strokeWidth=1;shadow=0;dashed=0;align=center;html=1;shape=mxgraph.mockup.containers.window;align=left;verticalAlign=top;spacingLeft=8;strokeColor2=#008cff;strokeColor3=#c4c4c4;fontColor=#666666;mainText=;fontSize=17;labelBackgroundColor=none;whiteSpace=wrap;" vertex="1" parent="1">
          <mxGeometry x="70" y="40" width="1090" height="600" as="geometry" />
        </mxCell>
        <mxCell id="J1m_tVuhaVCKjhUmoOyZ-8" value="IF: VacÃ­o" style="strokeWidth=1;shadow=0;dashed=0;align=center;html=1;shape=mxgraph.mockup.buttons.button;strokeColor=#666666;fontColor=#ffffff;mainText=;buttonStyle=round;fontSize=17;fontStyle=1;fillColor=#008cff;whiteSpace=wrap;" vertex="1" parent="1">
          <mxGeometry x="220" y="130" width="100" height="50" as="geometry" />
        </mxCell>
        <mxCell id="J1m_tVuhaVCKjhUmoOyZ-9" value="ID: VacÃ­o" style="strokeWidth=1;shadow=0;dashed=0;align=center;html=1;shape=mxgraph.mockup.buttons.button;strokeColor=#666666;fontColor=#ffffff;mainText=;buttonStyle=round;fontSize=17;fontStyle=1;fillColor=#008cff;whiteSpace=wrap;" vertex="1" parent="1">
          <mxGeometry x="340" y="130" width="100" height="50" as="geometry" />
        </mxCell>
        <mxCell id="J1m_tVuhaVCKjhUmoOyZ-10" value="EX: VacÃ­o" style="strokeWidth=1;shadow=0;dashed=0;align=center;html=1;shape=mxgraph.mockup.buttons.button;strokeColor=#666666;fontColor=#ffffff;mainText=;buttonStyle=round;fontSize=17;fontStyle=1;fillColor=#008cff;whiteSpace=wrap;" vertex="1" parent="1">
          <mxGeometry x="460" y="130" width="100" height="50" as="geometry" />
        </mxCell>
        <mxCell id="J1m_tVuhaVCKjhUmoOyZ-11" value="MEM: VacÃ­o" style="strokeWidth=1;shadow=0;dashed=0;align=center;html=1;shape=mxgraph.mockup.buttons.button;strokeColor=#666666;fontColor=#ffffff;mainText=;buttonStyle=round;fontSize=17;fontStyle=1;fillColor=#008cff;whiteSpace=wrap;" vertex="1" parent="1">
          <mxGeometry x="580" y="130" width="100" height="50" as="geometry" />
        </mxCell>
        <mxCell id="J1m_tVuhaVCKjhUmoOyZ-12" value="WB: VacÃ­o" style="strokeWidth=1;shadow=0;dashed=0;align=center;html=1;shape=mxgraph.mockup.buttons.button;strokeColor=#666666;fontColor=#ffffff;mainText=;buttonStyle=round;fontSize=17;fontStyle=1;fillColor=#008cff;whiteSpace=wrap;" vertex="1" parent="1">
          <mxGeometry x="700" y="130" width="100" height="50" as="geometry" />
        </mxCell>
        <mxCell id="J1m_tVuhaVCKjhUmoOyZ-13" value="ADD" style="strokeWidth=1;shadow=0;dashed=0;align=center;html=1;shape=mxgraph.mockup.buttons.button;strokeColor=#666666;fontColor=#ffffff;mainText=;buttonStyle=round;fontSize=17;fontStyle=1;fillColor=#008cff;whiteSpace=wrap;" vertex="1" parent="1">
          <mxGeometry x="230" y="450" width="100" height="50" as="geometry" />
        </mxCell>
        <mxCell id="J1m_tVuhaVCKjhUmoOyZ-14" value="SUB" style="strokeWidth=1;shadow=0;dashed=0;align=center;html=1;shape=mxgraph.mockup.buttons.button;strokeColor=#666666;fontColor=#ffffff;mainText=;buttonStyle=round;fontSize=17;fontStyle=1;fillColor=#008cff;whiteSpace=wrap;" vertex="1" parent="1">
          <mxGeometry x="350" y="450" width="100" height="50" as="geometry" />
        </mxCell>
        <mxCell id="J1m_tVuhaVCKjhUmoOyZ-15" value="MUL" style="strokeWidth=1;shadow=0;dashed=0;align=center;html=1;shape=mxgraph.mockup.buttons.button;strokeColor=#666666;fontColor=#ffffff;mainText=;buttonStyle=round;fontSize=17;fontStyle=1;fillColor=#008cff;whiteSpace=wrap;" vertex="1" parent="1">
          <mxGeometry x="470" y="450" width="100" height="50" as="geometry" />
        </mxCell>
        <mxCell id="J1m_tVuhaVCKjhUmoOyZ-16" value="DIV" style="strokeWidth=1;shadow=0;dashed=0;align=center;html=1;shape=mxgraph.mockup.buttons.button;strokeColor=#666666;fontColor=#ffffff;mainText=;buttonStyle=round;fontSize=17;fontStyle=1;fillColor=#008cff;whiteSpace=wrap;" vertex="1" parent="1">
          <mxGeometry x="590" y="450" width="100" height="50" as="geometry" />
        </mxCell>
        <mxCell id="J1m_tVuhaVCKjhUmoOyZ-17" value="MOD" style="strokeWidth=1;shadow=0;dashed=0;align=center;html=1;shape=mxgraph.mockup.buttons.button;strokeColor=#666666;fontColor=#ffffff;mainText=;buttonStyle=round;fontSize=17;fontStyle=1;fillColor=#008cff;whiteSpace=wrap;" vertex="1" parent="1">
          <mxGeometry x="710" y="450" width="100" height="50" as="geometry" />
        </mxCell>
        <mxCell id="J1m_tVuhaVCKjhUmoOyZ-18" value="STORE" style="strokeWidth=1;shadow=0;dashed=0;align=center;html=1;shape=mxgraph.mockup.buttons.button;strokeColor=#666666;fontColor=#ffffff;mainText=;buttonStyle=round;fontSize=17;fontStyle=1;fillColor=#008cff;whiteSpace=wrap;" vertex="1" parent="1">
          <mxGeometry x="230" y="520" width="100" height="50" as="geometry" />
        </mxCell>
        <mxCell id="J1m_tVuhaVCKjhUmoOyZ-19" value="LOAD" style="strokeWidth=1;shadow=0;dashed=0;align=center;html=1;shape=mxgraph.mockup.buttons.button;strokeColor=#666666;fontColor=#ffffff;mainText=;buttonStyle=round;fontSize=17;fontStyle=1;fillColor=#008cff;whiteSpace=wrap;" vertex="1" parent="1">
          <mxGeometry x="350" y="520" width="100" height="50" as="geometry" />
        </mxCell>
        <mxCell id="J1m_tVuhaVCKjhUmoOyZ-20" value="SWAP" style="strokeWidth=1;shadow=0;dashed=0;align=center;html=1;shape=mxgraph.mockup.buttons.button;strokeColor=#666666;fontColor=#ffffff;mainText=;buttonStyle=round;fontSize=17;fontStyle=1;fillColor=#008cff;whiteSpace=wrap;" vertex="1" parent="1">
          <mxGeometry x="470" y="520" width="100" height="50" as="geometry" />
        </mxCell>
        <mxCell id="J1m_tVuhaVCKjhUmoOyZ-21" value="BNE" style="strokeWidth=1;shadow=0;dashed=0;align=center;html=1;shape=mxgraph.mockup.buttons.button;strokeColor=#666666;fontColor=#ffffff;mainText=;buttonStyle=round;fontSize=17;fontStyle=1;fillColor=#008cff;whiteSpace=wrap;" vertex="1" parent="1">
          <mxGeometry x="590" y="520" width="100" height="50" as="geometry" />
        </mxCell>
        <mxCell id="J1m_tVuhaVCKjhUmoOyZ-22" value="BEQ" style="strokeWidth=1;shadow=0;dashed=0;align=center;html=1;shape=mxgraph.mockup.buttons.button;strokeColor=#666666;fontColor=#ffffff;mainText=;buttonStyle=round;fontSize=17;fontStyle=1;fillColor=#008cff;whiteSpace=wrap;" vertex="1" parent="1">
          <mxGeometry x="710" y="520" width="100" height="50" as="geometry" />
        </mxCell>
        <mxCell id="J1m_tVuhaVCKjhUmoOyZ-23" value="Ejecutar" style="strokeWidth=1;shadow=0;dashed=0;align=center;html=1;shape=mxgraph.mockup.buttons.button;strokeColor=#666666;fontColor=#ffffff;mainText=;buttonStyle=round;fontSize=17;fontStyle=1;fillColor=#008cff;whiteSpace=wrap;" vertex="1" parent="1">
          <mxGeometry x="230" y="585" width="100" height="50" as="geometry" />
        </mxCell>
        <mxCell id="J1m_tVuhaVCKjhUmoOyZ-24" value="Step-by-Step" style="strokeWidth=1;shadow=0;dashed=0;align=center;html=1;shape=mxgraph.mockup.buttons.button;strokeColor=#666666;fontColor=#ffffff;mainText=;buttonStyle=round;fontSize=17;fontStyle=1;fillColor=#008cff;whiteSpace=wrap;" vertex="1" parent="1">
          <mxGeometry x="350" y="585" width="100" height="50" as="geometry" />
        </mxCell>
        <mxCell id="J1m_tVuhaVCKjhUmoOyZ-25" value="EjecuciÃ³n con tiempo" style="strokeWidth=1;shadow=0;dashed=0;align=center;html=1;shape=mxgraph.mockup.buttons.button;strokeColor=#666666;fontColor=#ffffff;mainText=;buttonStyle=round;fontSize=17;fontStyle=1;fillColor=#008cff;whiteSpace=wrap;" vertex="1" parent="1">
          <mxGeometry x="470" y="585" width="100" height="50" as="geometry" />
        </mxCell>
        <mxCell id="J1m_tVuhaVCKjhUmoOyZ-26" value="EjecuciÃ³n Completa" style="strokeWidth=1;shadow=0;dashed=0;align=center;html=1;shape=mxgraph.mockup.buttons.button;strokeColor=#666666;fontColor=#ffffff;mainText=;buttonStyle=round;fontSize=17;fontStyle=1;fillColor=#008cff;whiteSpace=wrap;" vertex="1" parent="1">
          <mxGeometry x="590" y="585" width="100" height="50" as="geometry" />
        </mxCell>
        <mxCell id="J1m_tVuhaVCKjhUmoOyZ-27" value="Historial" style="strokeWidth=1;shadow=0;dashed=0;align=center;html=1;shape=mxgraph.mockup.buttons.button;strokeColor=#666666;fontColor=#ffffff;mainText=;buttonStyle=round;fontSize=17;fontStyle=1;fillColor=#008cff;whiteSpace=wrap;" vertex="1" parent="1">
          <mxGeometry x="710" y="585" width="100" height="50" as="geometry" />
        </mxCell>
        <mxCell id="J1m_tVuhaVCKjhUmoOyZ-28" value="IF: VacÃ­o" style="strokeWidth=1;shadow=0;dashed=0;align=center;html=1;shape=mxgraph.mockup.buttons.button;strokeColor=#666666;fontColor=#ffffff;mainText=;buttonStyle=round;fontSize=17;fontStyle=1;fillColor=#008cff;whiteSpace=wrap;" vertex="1" parent="1">
          <mxGeometry x="220" y="190" width="100" height="50" as="geometry" />
        </mxCell>
        <mxCell id="J1m_tVuhaVCKjhUmoOyZ-29" value="ID: VacÃ­o" style="strokeWidth=1;shadow=0;dashed=0;align=center;html=1;shape=mxgraph.mockup.buttons.button;strokeColor=#666666;fontColor=#ffffff;mainText=;buttonStyle=round;fontSize=17;fontStyle=1;fillColor=#008cff;whiteSpace=wrap;" vertex="1" parent="1">
          <mxGeometry x="340" y="190" width="100" height="50" as="geometry" />
        </mxCell>
        <mxCell id="J1m_tVuhaVCKjhUmoOyZ-30" value="EX: VacÃ­o" style="strokeWidth=1;shadow=0;dashed=0;align=center;html=1;shape=mxgraph.mockup.buttons.button;strokeColor=#666666;fontColor=#ffffff;mainText=;buttonStyle=round;fontSize=17;fontStyle=1;fillColor=#008cff;whiteSpace=wrap;" vertex="1" parent="1">
          <mxGeometry x="460" y="190" width="100" height="50" as="geometry" />
        </mxCell>
        <mxCell id="J1m_tVuhaVCKjhUmoOyZ-31" value="MEM: VacÃ­o" style="strokeWidth=1;shadow=0;dashed=0;align=center;html=1;shape=mxgraph.mockup.buttons.button;strokeColor=#666666;fontColor=#ffffff;mainText=;buttonStyle=round;fontSize=17;fontStyle=1;fillColor=#008cff;whiteSpace=wrap;" vertex="1" parent="1">
          <mxGeometry x="580" y="190" width="100" height="50" as="geometry" />
        </mxCell>
        <mxCell id="J1m_tVuhaVCKjhUmoOyZ-32" value="WB: VacÃ­o" style="strokeWidth=1;shadow=0;dashed=0;align=center;html=1;shape=mxgraph.mockup.buttons.button;strokeColor=#666666;fontColor=#ffffff;mainText=;buttonStyle=round;fontSize=17;fontStyle=1;fillColor=#008cff;whiteSpace=wrap;" vertex="1" parent="1">
          <mxGeometry x="700" y="190" width="100" height="50" as="geometry" />
        </mxCell>
        <mxCell id="J1m_tVuhaVCKjhUmoOyZ-33" value="&lt;table cellpadding=&quot;0&quot; cellspacing=&quot;0&quot; style=&quot;width:100%;height:100%;&quot;&gt;&lt;tr&gt;&lt;td style=&quot;width:85%&quot;&gt;100&lt;/td&gt;&lt;td style=&quot;width:15%&quot;&gt;&lt;/td&gt;&lt;/tr&gt;&lt;/table&gt;" style="strokeWidth=1;shadow=0;align=center;html=1;shape=mxgraph.mockup.forms.spinner;strokeColor=#999999;spinLayout=right;spinStyle=normal;adjStyle=triangle;fillColor=#aaddff;fontSize=17;fontColor=#666666;mainText=;html=1;overflow=fill;" vertex="1" parent="1">
          <mxGeometry x="190" y="97" width="70" height="27" as="geometry" />
        </mxCell>
        <mxCell id="J1m_tVuhaVCKjhUmoOyZ-34" value="ConfiguraciÃ³n P1" style="strokeWidth=1;shadow=0;dashed=0;align=center;html=1;shape=mxgraph.mockup.forms.comboBox;strokeColor=#999999;fillColor=#ddeeff;align=left;fillColor2=#aaddff;mainText=;fontColor=#666666;fontSize=17;spacingLeft=3;" vertex="1" parent="1">
          <mxGeometry x="810" y="130" width="170" height="50" as="geometry" />
        </mxCell>
        <mxCell id="J1m_tVuhaVCKjhUmoOyZ-35" value="ConfiguraciÃ³n P2" style="strokeWidth=1;shadow=0;dashed=0;align=center;html=1;shape=mxgraph.mockup.forms.comboBox;strokeColor=#999999;fillColor=#ddeeff;align=left;fillColor2=#aaddff;mainText=;fontColor=#666666;fontSize=17;spacingLeft=3;" vertex="1" parent="1">
          <mxGeometry x="810" y="190" width="170" height="50" as="geometry" />
        </mxCell>
        <mxCell id="J1m_tVuhaVCKjhUmoOyZ-36" value="&lt;font style=&quot;font-size: 16px;&quot;&gt;Tiempo (c/s)&lt;/font&gt;" style="text;align=center;fontStyle=1;verticalAlign=middle;spacingLeft=3;spacingRight=3;strokeColor=none;rotatable=0;points=[[0,0.5],[1,0.5]];portConstraint=eastwest;html=1;" vertex="1" parent="1">
          <mxGeometry x="90" y="97" width="80" height="26" as="geometry" />
        </mxCell>
        <mxCell id="J1m_tVuhaVCKjhUmoOyZ-37" value="2" style="strokeWidth=1;shadow=0;dashed=0;align=center;html=1;shape=mxgraph.mockup.text.textBox;fontColor=#666666;align=left;fontSize=17;spacingLeft=4;spacingTop=-3;whiteSpace=wrap;strokeColor=#666666;mainText=" vertex="1" parent="1">
          <mxGeometry x="930" y="405" width="90" height="30" as="geometry" />
        </mxCell>
        <mxCell id="J1m_tVuhaVCKjhUmoOyZ-38" value="3" style="strokeWidth=1;shadow=0;dashed=0;align=center;html=1;shape=mxgraph.mockup.text.textBox;fontColor=#666666;align=left;fontSize=17;spacingLeft=4;spacingTop=-3;whiteSpace=wrap;strokeColor=#666666;mainText=" vertex="1" parent="1">
          <mxGeometry x="1040" y="405" width="90" height="30" as="geometry" />
        </mxCell>
        <mxCell id="J1m_tVuhaVCKjhUmoOyZ-40" value="Procesador 1" style="text;html=1;align=center;verticalAlign=middle;whiteSpace=wrap;rounded=0;fontSize=13;fontStyle=1" vertex="1" parent="1">
          <mxGeometry x="930" y="375" width="90" height="30" as="geometry" />
        </mxCell>
        <mxCell id="J1m_tVuhaVCKjhUmoOyZ-41" value="Procesador 2" style="text;html=1;align=center;verticalAlign=middle;whiteSpace=wrap;rounded=0;fontSize=13;fontStyle=1" vertex="1" parent="1">
          <mxGeometry x="1040" y="375" width="90" height="30" as="geometry" />
        </mxCell>
        <mxCell id="J1m_tVuhaVCKjhUmoOyZ-42" value="Ciclos" style="text;html=1;align=center;verticalAlign=middle;whiteSpace=wrap;rounded=0;fontSize=13;fontStyle=1" vertex="1" parent="1">
          <mxGeometry x="827" y="455" width="90" height="30" as="geometry" />
        </mxCell>
        <mxCell id="J1m_tVuhaVCKjhUmoOyZ-43" value="Tiempo" style="text;html=1;align=center;verticalAlign=middle;whiteSpace=wrap;rounded=0;fontSize=13;fontStyle=1" vertex="1" parent="1">
          <mxGeometry x="830" y="405" width="90" height="30" as="geometry" />
        </mxCell>
        <mxCell id="J1m_tVuhaVCKjhUmoOyZ-44" value="40" style="strokeWidth=1;shadow=0;dashed=0;align=center;html=1;shape=mxgraph.mockup.text.textBox;fontColor=#666666;align=left;fontSize=17;spacingLeft=4;spacingTop=-3;whiteSpace=wrap;strokeColor=#666666;mainText=" vertex="1" parent="1">
          <mxGeometry x="930" y="455" width="90" height="30" as="geometry" />
        </mxCell>
        <mxCell id="J1m_tVuhaVCKjhUmoOyZ-45" value="40" style="strokeWidth=1;shadow=0;dashed=0;align=center;html=1;shape=mxgraph.mockup.text.textBox;fontColor=#666666;align=left;fontSize=17;spacingLeft=4;spacingTop=-3;whiteSpace=wrap;strokeColor=#666666;mainText=" vertex="1" parent="1">
          <mxGeometry x="1040" y="455" width="90" height="30" as="geometry" />
        </mxCell>
        <mxCell id="J1m_tVuhaVCKjhUmoOyZ-46" value="2" style="strokeWidth=1;shadow=0;dashed=0;align=center;html=1;shape=mxgraph.mockup.text.textBox;fontColor=#666666;align=left;fontSize=17;spacingLeft=4;spacingTop=-3;whiteSpace=wrap;strokeColor=#666666;mainText=" vertex="1" parent="1">
          <mxGeometry x="930" y="505" width="90" height="30" as="geometry" />
        </mxCell>
        <mxCell id="J1m_tVuhaVCKjhUmoOyZ-47" value="3" style="strokeWidth=1;shadow=0;dashed=0;align=center;html=1;shape=mxgraph.mockup.text.textBox;fontColor=#666666;align=left;fontSize=17;spacingLeft=4;spacingTop=-3;whiteSpace=wrap;strokeColor=#666666;mainText=" vertex="1" parent="1">
          <mxGeometry x="1040" y="505" width="90" height="30" as="geometry" />
        </mxCell>
        <mxCell id="J1m_tVuhaVCKjhUmoOyZ-48" value="5" style="strokeWidth=1;shadow=0;dashed=0;align=center;html=1;shape=mxgraph.mockup.text.textBox;fontColor=#666666;align=left;fontSize=17;spacingLeft=4;spacingTop=-3;whiteSpace=wrap;strokeColor=#666666;mainText=" vertex="1" parent="1">
          <mxGeometry x="930" y="555" width="90" height="30" as="geometry" />
        </mxCell>
        <mxCell id="J1m_tVuhaVCKjhUmoOyZ-49" value="15" style="strokeWidth=1;shadow=0;dashed=0;align=center;html=1;shape=mxgraph.mockup.text.textBox;fontColor=#666666;align=left;fontSize=17;spacingLeft=4;spacingTop=-3;whiteSpace=wrap;strokeColor=#666666;mainText=" vertex="1" parent="1">
          <mxGeometry x="1040" y="555" width="90" height="30" as="geometry" />
        </mxCell>
        <mxCell id="J1m_tVuhaVCKjhUmoOyZ-50" value="CPI" style="text;html=1;align=center;verticalAlign=middle;whiteSpace=wrap;rounded=0;fontSize=13;fontStyle=1" vertex="1" parent="1">
          <mxGeometry x="830" y="505" width="90" height="30" as="geometry" />
        </mxCell>
        <mxCell id="J1m_tVuhaVCKjhUmoOyZ-51" value="IPC" style="text;html=1;align=center;verticalAlign=middle;whiteSpace=wrap;rounded=0;fontSize=13;fontStyle=1" vertex="1" parent="1">
          <mxGeometry x="830" y="550" width="90" height="30" as="geometry" />
        </mxCell>
        <mxCell id="J1m_tVuhaVCKjhUmoOyZ-52" value="2" style="strokeWidth=1;shadow=0;dashed=0;align=center;html=1;shape=mxgraph.mockup.text.textBox;fontColor=#666666;align=left;fontSize=17;spacingLeft=4;spacingTop=-3;whiteSpace=wrap;strokeColor=#666666;mainText=" vertex="1" parent="1">
          <mxGeometry x="170" y="140" width="30" height="30" as="geometry" />
        </mxCell>
        <mxCell id="J1m_tVuhaVCKjhUmoOyZ-53" value="PC" style="text;html=1;align=center;verticalAlign=middle;whiteSpace=wrap;rounded=0;fontSize=15;fontStyle=1" vertex="1" parent="1">
          <mxGeometry x="100" y="140" width="60" height="30" as="geometry" />
        </mxCell>
        <mxCell id="J1m_tVuhaVCKjhUmoOyZ-55" value="PC" style="text;html=1;align=center;verticalAlign=middle;whiteSpace=wrap;rounded=0;fontSize=15;fontStyle=1" vertex="1" parent="1">
          <mxGeometry x="100" y="200" width="60" height="30" as="geometry" />
        </mxCell>
        <mxCell id="J1m_tVuhaVCKjhUmoOyZ-56" value="2" style="strokeWidth=1;shadow=0;dashed=0;align=center;html=1;shape=mxgraph.mockup.text.textBox;fontColor=#666666;align=left;fontSize=17;spacingLeft=4;spacingTop=-3;whiteSpace=wrap;strokeColor=#666666;mainText=" vertex="1" parent="1">
          <mxGeometry x="170" y="200" width="30" height="30" as="geometry" />
        </mxCell>
        <mxCell id="J1m_tVuhaVCKjhUmoOyZ-71" value="Frecuencia reloj" style="text;html=1;align=center;verticalAlign=middle;whiteSpace=wrap;rounded=0;fontSize=13;fontStyle=1" vertex="1" parent="1">
          <mxGeometry x="840" y="605" width="90" height="30" as="geometry" />
        </mxCell>
        <mxCell id="J1m_tVuhaVCKjhUmoOyZ-72" value="5" style="strokeWidth=1;shadow=0;dashed=0;align=center;html=1;shape=mxgraph.mockup.text.textBox;fontColor=#666666;align=left;fontSize=17;spacingLeft=4;spacingTop=-3;whiteSpace=wrap;strokeColor=#666666;mainText=" vertex="1" parent="1">
          <mxGeometry x="930" y="605" width="90" height="30" as="geometry" />
        </mxCell>
        <mxCell id="J1m_tVuhaVCKjhUmoOyZ-73" value="15" style="strokeWidth=1;shadow=0;dashed=0;align=center;html=1;shape=mxgraph.mockup.text.textBox;fontColor=#666666;align=left;fontSize=17;spacingLeft=4;spacingTop=-3;whiteSpace=wrap;strokeColor=#666666;mainText=" vertex="1" parent="1">
          <mxGeometry x="1040" y="605" width="90" height="30" as="geometry" />
        </mxCell>
      </root>
    </mxGraphModel>
  </diagram>
</mxfile>
